<?xml version="1.0" encoding="UTF-8" standalone="no"?>
<svg
   xmlns:dc="http://purl.org/dc/elements/1.1/"
   xmlns:cc="http://creativecommons.org/ns#"
   xmlns:rdf="http://www.w3.org/1999/02/22-rdf-syntax-ns#"
   xmlns:svg="http://www.w3.org/2000/svg"
   xmlns="http://www.w3.org/2000/svg"
   xmlns:sodipodi="http://sodipodi.sourceforge.net/DTD/sodipodi-0.dtd"
   xmlns:inkscape="http://www.inkscape.org/namespaces/inkscape"
   height="1828"
   viewBox="-10.63 -.07077792 823.87 610.06955549"
   width="2500"
   version="1.1"
   id="svg4"
   sodipodi:docname="discord-white.svg"
   inkscape:version="1.0.1 (3bc2e813f5, 2020-09-07)">
  <metadata
     id="metadata10">
    <rdf:RDF>
      <cc:Work
         rdf:about="">
        <dc:format>image/svg+xml</dc:format>
        <dc:type
           rdf:resource="http://purl.org/dc/dcmitype/StillImage" />
      </cc:Work>
    </rdf:RDF>
  </metadata>
  <defs
     id="defs8" />
  <sodipodi:namedview
     pagecolor="#ffffff"
     bordercolor="#666666"
     borderopacity="1"
     objecttolerance="10"
     gridtolerance="10"
     guidetolerance="10"
     inkscape:pageopacity="0"
     inkscape:pageshadow="2"
     inkscape:window-width="1920"
     inkscape:window-height="1009"
     id="namedview6"
     showgrid="false"
     inkscape:zoom="0.30009612"
     inkscape:cx="2000.0757"
     inkscape:cy="1170.999"
     inkscape:window-x="-8"
     inkscape:window-y="-8"
     inkscape:window-maximized="1"
     inkscape:current-layer="svg4" />
  <path
     d="m678.27 51.62c90.35 132.84 134.97 282.68 118.29 455.18-.07.73-.45 1.4-1.05 1.84-68.42 50.24-134.71 80.73-200.07 100.95a2.55 2.55 0 0 1 -2.81-.95c-15.1-21.01-28.82-43.16-40.84-66.42-.69-1.37-.06-3.02 1.36-3.56 21.79-8.21 42.51-18.05 62.44-29.7 1.57-.92 1.67-3.17.22-4.25-4.23-3.14-8.42-6.44-12.43-9.74-.75-.61-1.76-.73-2.61-.32-129.39 59.75-271.13 59.75-402.05 0-.85-.38-1.86-.25-2.59.35-4 3.3-8.2 6.57-12.39 9.71-1.45 1.08-1.33 3.33.25 4.25 19.93 11.43 40.65 21.49 62.41 29.74 1.41.54 2.08 2.15 1.38 3.52-11.76 23.29-25.48 45.44-40.86 66.45-.67.85-1.77 1.24-2.81.92-65.05-20.22-131.34-50.71-199.76-100.95-.57-.44-.98-1.14-1.04-1.87-13.94-149.21 14.47-300.29 118.18-455.18.25-.41.63-.73 1.07-.92 51.03-23.42 105.7-40.65 162.84-50.49 1.04-.16 2.08.32 2.62 1.24 7.06 12.5 15.13 28.53 20.59 41.63 60.23-9.2 121.4-9.2 182.89 0 5.46-12.82 13.25-29.13 20.28-41.63a2.47 2.47 0 0 1 2.62-1.24c57.17 9.87 111.84 27.1 162.83 50.49.45.19.82.51 1.04.95zm-339.04 283.7c.63-44.11-31.53-80.61-71.9-80.61-40.04 0-71.89 36.18-71.89 80.61 0 44.42 32.48 80.6 71.89 80.6 40.05 0 71.9-36.18 71.9-80.6zm265.82 0c.63-44.11-31.53-80.61-71.89-80.61-40.05 0-71.9 36.18-71.9 80.61 0 44.42 32.48 80.6 71.9 80.6 40.36 0 71.89-36.18 71.89-80.6z"
     fill="#bbbbbb"
     id="path2"
     style="fill:#8a9098;fill-opacity:1" />
</svg>
