<?xml version="1.0" encoding="UTF-8" standalone="no"?>
<svg
   xmlns:dc="http://purl.org/dc/elements/1.1/"
   xmlns:cc="http://creativecommons.org/ns#"
   xmlns:rdf="http://www.w3.org/1999/02/22-rdf-syntax-ns#"
   xmlns:svg="http://www.w3.org/2000/svg"
   xmlns="http://www.w3.org/2000/svg"
   xmlns:sodipodi="http://sodipodi.sourceforge.net/DTD/sodipodi-0.dtd"
   xmlns:inkscape="http://www.inkscape.org/namespaces/inkscape"
   width="290"
   height="181"
   viewBox="0 0 290 181"
   fill="none"
   version="1.1"
   id="svg48"
   sodipodi:docname="Frame 483545.svg"
   inkscape:version="1.0.1 (3bc2e813f5, 2020-09-07)">
  <metadata
     id="metadata52">
    <rdf:RDF>
      <cc:Work
         rdf:about="">
        <dc:format>image/svg+xml</dc:format>
        <dc:type
           rdf:resource="http://purl.org/dc/dcmitype/StillImage" />
      </cc:Work>
    </rdf:RDF>
  </metadata>
  <sodipodi:namedview
     pagecolor="#ffffff"
     bordercolor="#666666"
     borderopacity="1"
     objecttolerance="10"
     gridtolerance="10"
     guidetolerance="10"
     inkscape:pageopacity="0"
     inkscape:pageshadow="2"
     inkscape:window-width="1727"
     inkscape:window-height="918"
     id="namedview50"
     showgrid="false"
     inkscape:zoom="3.6586207"
     inkscape:cx="145"
     inkscape:cy="90.5"
     inkscape:window-x="0"
     inkscape:window-y="0"
     inkscape:window-maximized="0"
     inkscape:current-layer="svg48" />
  <g
     clip-path="url(#clip0_6585_35009)"
     id="g24">
    <path
       d="M186.083 150.438C219.564 150.438 246.5 123.502 246.5 90.0212C246.5 56.5401 219.564 29.6045 186.083 29.6045C152.602 29.6045 125.667 56.5401 125.667 90.0212C125.667 123.502 152.602 150.438 186.083 150.438Z"
       fill="#2775CA"
       id="path18" />
    <path
       d="M202.696 99.5853C202.696 90.7747 197.41 87.7539 186.837 86.4954C179.285 85.4883 177.774 83.4746 177.774 79.9499C177.774 76.4252 180.292 74.1601 185.327 74.1601C189.858 74.1601 192.375 75.6706 193.634 79.4466C193.886 80.2018 194.641 80.7051 195.396 80.7051H199.424C200.431 80.7051 201.186 79.9499 201.186 78.9433V78.6914C200.179 73.153 195.647 68.8737 189.858 68.3704V62.3287C189.858 61.3216 189.103 60.5664 187.844 60.3145H184.068C183.061 60.3145 182.306 61.0697 182.054 62.3287V68.1185C174.502 69.1256 169.719 74.1601 169.719 80.4537C169.719 88.761 174.754 92.0332 185.327 93.2923C192.375 94.5508 194.641 96.0612 194.641 100.089C194.641 104.117 191.116 106.886 186.334 106.886C179.788 106.886 177.522 104.117 176.767 100.34C176.516 99.334 175.761 98.8301 175.006 98.8301H170.726C169.719 98.8301 168.964 99.5853 168.964 100.592V100.844C169.97 107.137 173.998 111.669 182.306 112.928V118.969C182.306 119.976 183.061 120.731 184.319 120.983H188.095C189.103 120.983 189.858 120.228 190.11 118.969V112.928C197.662 111.669 202.696 106.382 202.696 99.5853Z"
       fill="white"
       id="path20" />
    <path
       d="M173.243 126.021C153.608 118.973 143.538 97.0718 150.839 77.6877C154.615 67.1148 162.922 59.0594 173.243 55.2834C174.25 54.7801 174.754 54.0249 174.754 52.7658V49.2417C174.754 48.2346 174.25 47.4794 173.243 47.228C172.991 47.228 172.488 47.228 172.236 47.4794C148.321 55.0314 135.231 80.4572 142.783 104.372C147.314 118.469 158.139 129.294 172.236 133.825C173.243 134.328 174.25 133.825 174.502 132.818C174.754 132.567 174.754 132.315 174.754 131.811V128.287C174.754 127.531 173.999 126.525 173.243 126.021ZM199.928 47.4794C198.92 46.9761 197.913 47.4794 197.662 48.4865C197.41 48.7384 197.41 48.9898 197.41 49.4937V53.0178C197.41 54.0249 198.165 55.0314 198.92 55.5353C218.556 62.5835 228.626 84.4846 221.325 103.869C217.549 114.442 209.241 122.497 198.92 126.273C197.913 126.776 197.41 127.531 197.41 128.791V132.315C197.41 133.322 197.913 134.077 198.92 134.328C199.172 134.328 199.676 134.328 199.928 134.077C223.842 126.525 236.933 101.099 229.381 77.1844C224.849 62.8355 213.773 52.0106 199.928 47.4794Z"
       fill="white"
       id="path22" />
  </g>
  <defs
     id="defs46">
    <filter
       id="filter0_d_6585_35009"
       x="33.8315"
       y="19.936"
       width="140.17"
       height="140.17"
       filterUnits="userSpaceOnUse"
       color-interpolation-filters="sRGB">
      <feFlood
         flood-opacity="0"
         result="BackgroundImageFix"
         id="feFlood26" />
      <feColorMatrix
         in="SourceAlpha"
         type="matrix"
         values="0 0 0 0 0 0 0 0 0 0 0 0 0 0 0 0 0 0 127 0"
         result="hardAlpha"
         id="feColorMatrix28" />
      <feOffset
         id="feOffset30" />
      <feGaussianBlur
         stdDeviation="4.835"
         id="feGaussianBlur32" />
      <feComposite
         in2="hardAlpha"
         operator="out"
         id="feComposite34" />
      <feColorMatrix
         type="matrix"
         values="0 0 0 0 0 0 0 0 0 0 0 0 0 0 0 0 0 0 1 0"
         id="feColorMatrix36" />
      <feBlend
         mode="normal"
         in2="BackgroundImageFix"
         result="effect1_dropShadow_6585_35009"
         id="feBlend38" />
      <feBlend
         mode="normal"
         in="SourceGraphic"
         in2="effect1_dropShadow_6585_35009"
         result="shape"
         id="feBlend40" />
    </filter>
    <clipPath
       id="clip0_6585_35009">
      <rect
         width="120.833"
         height="120.833"
         fill="white"
         transform="translate(125.665 29.604)"
         id="rect43" />
    </clipPath>
  </defs>
  <g
     filter="url(#filter0_d_6585_35009)"
     id="g16">
    <rect
       x="43.501499"
       y="29.606001"
       width="120.83"
       height="120.83"
       rx="60.415001"
       fill="#2d374b"
       shape-rendering="crispEdges"
       id="rect2" />
    <path
       d="m 115.777,85.533 7.88,-13.3704 21.239,33.0804 0.01,6.349 -0.069,-43.6862 c -0.051,-1.0679 -0.618,-2.0449 -1.522,-2.6209 L 105.076,43.2896 c -0.894,-0.4395 -2.028,-0.4349 -2.921,0.0137 -0.121,0.0606 -0.234,0.1262 -0.343,0.1978 l -0.133,0.0839 -37.1162,21.5088 -0.1442,0.0652 c -0.1851,0.0853 -0.3723,0.1935 -0.5481,0.3193 -0.7036,0.5048 -1.1711,1.251 -1.3222,2.0882 -0.0227,0.1268 -0.0393,0.256 -0.0473,0.3862 l 0.0582,35.6003 19.7833,-30.6635 c 2.4907,-4.066 7.9176,-5.3757 12.9553,-5.3044 l 5.9122,0.1562 -34.8371,55.8697 4.1066,2.364 35.2555,-58.1771 15.582,-0.0566 -35.1638,59.6457 14.6538,8.428 1.751,1.007 c 0.74,0.301 1.613,0.316 2.36,0.047 l 38.776,-22.471 -7.413,4.295 z m 3.006,43.3 -14.8,-23.229 9.035,-15.331 19.437,30.637 z"
       fill="#2d374b"
       id="path4" />
    <path
       d="m 103.982,105.603 14.801,23.229 13.672,-7.923 -19.438,-30.637 z"
       fill="#28a0f0"
       id="path6" />
    <path
       d="m 144.904,111.594 -0.01,-6.349 -21.239,-33.0804 -7.88,13.3704 20.504,33.16 7.413,-4.295 c 0.728,-0.591 1.167,-1.457 1.214,-2.393 z"
       fill="#28a0f0"
       id="path8" />
    <path
       d="m 55.9027,117.579 10.4688,6.032 34.8375,-55.8696 -5.9126,-0.1561 C 90.2588,67.514 84.8322,68.8236 82.3412,72.8896 l -19.7833,30.6634 -6.6556,10.226 v 3.8 z"
       fill="#ffffff"
       id="path10" />
    <path
       d="m 121.317,67.7412 -15.582,0.0566 -35.2555,58.1772 12.3226,7.095 3.3511,-5.683 z"
       fill="#ffffff"
       id="path12" />
    <path
       d="m 151.472,67.6612 c -0.13,-3.2589 -1.894,-6.2424 -4.658,-7.9792 l -38.74,-22.278 c -2.734,-1.3769 -6.15,-1.3785 -8.8881,-0.001 -0.3236,0.1632 -37.6735,21.8248 -37.6735,21.8248 -0.5168,0.2477 -1.0146,0.5431 -1.4831,0.8781 -2.4674,1.7684 -3.9715,4.5162 -4.126,7.5353 v 46.1378 l 6.6556,-10.226 -0.0583,-35.5998 c 0.008,-0.1302 0.0243,-0.2581 0.0473,-0.3846 0.1502,-0.8378 0.618,-1.585 1.3223,-2.0898 0.1758,-0.1259 38.1638,-22.1145 38.2838,-22.1751 0.894,-0.4485 2.028,-0.4532 2.922,-0.0136 l 38.238,21.9953 c 0.905,0.576 1.472,1.553 1.522,2.6208 v 44.0998 c -0.046,0.935 -0.415,1.801 -1.143,2.392 l -7.413,4.296 -3.825,2.217 -13.672,7.923 -13.865,8.035 c -0.747,0.27 -1.62,0.255 -2.361,-0.046 l -16.4045,-9.436 -3.3511,5.684 14.7423,8.488 c 0.4875,0.277 0.922,0.522 1.2783,0.723 0.5521,0.309 0.928,0.516 1.0609,0.581 1.0481,0.508 2.5551,0.805 3.9141,0.805 1.245,0 2.46,-0.229 3.609,-0.679 l 40.272,-23.323 c 2.312,-1.791 3.672,-4.492 3.794,-7.418 z"
       fill="#96bedc"
       id="path14" />
  </g>
</svg>
