<?xml version="1.0" encoding="UTF-8" standalone="no"?>
<svg
   xmlns:dc="http://purl.org/dc/elements/1.1/"
   xmlns:cc="http://creativecommons.org/ns#"
   xmlns:rdf="http://www.w3.org/1999/02/22-rdf-syntax-ns#"
   xmlns:svg="http://www.w3.org/2000/svg"
   xmlns="http://www.w3.org/2000/svg"
   xmlns:sodipodi="http://sodipodi.sourceforge.net/DTD/sodipodi-0.dtd"
   xmlns:inkscape="http://www.inkscape.org/namespaces/inkscape"
   xml:space="preserve"
   width="2244"
   height="1277"
   version="1.1"
   shape-rendering="geometricPrecision"
   text-rendering="geometricPrecision"
   image-rendering="optimizeQuality"
   fill-rule="evenodd"
   clip-rule="evenodd"
   viewBox="0 0 2244 1277"
   id="svg19"
   sodipodi:docname="gmx-usdc.svg"
   inkscape:version="1.0.1 (3bc2e813f5, 2020-09-07)"><metadata
   id="metadata25"><rdf:RDF><cc:Work
       rdf:about=""><dc:format>image/svg+xml</dc:format><dc:type
         rdf:resource="http://purl.org/dc/dcmitype/StillImage" /><dc:title /></cc:Work></rdf:RDF></metadata><defs
   id="defs23"><linearGradient
     id="a"
     gradientUnits="userSpaceOnUse"
     x1="461.7553"
     x2="448.54155"
     y1="816.8334"
     y2="841.34805"
     gradientTransform="matrix(55.364929,0,0,40.27266,-23940.705,-32773.466)"><stop
       offset="0"
       stop-color="#03d1cf"
       stop-opacity=".988"
       id="stop2" /><stop
       offset="1"
       stop-color="#4e09f8"
       id="stop4" /></linearGradient></defs><sodipodi:namedview
   pagecolor="#ffffff"
   bordercolor="#666666"
   borderopacity="1"
   objecttolerance="10"
   gridtolerance="10"
   guidetolerance="10"
   inkscape:pageopacity="0"
   inkscape:pageshadow="2"
   inkscape:window-width="1920"
   inkscape:window-height="1009"
   id="namedview21"
   showgrid="false"
   inkscape:zoom="0.32918686"
   inkscape:cx="1199.1464"
   inkscape:cy="481.83452"
   inkscape:window-x="-8"
   inkscape:window-y="104"
   inkscape:window-maximized="1"
   inkscape:current-layer="svg19"
   inkscape:document-rotation="0" />
 
<path
   d="m 649.60328,1275.5293 c 352.99752,0 636.98432,-283.98679 636.98432,-636.98438 0,-352.99759 -283.9868,-636.9842896 -636.98432,-636.9842896 -352.99753,0 -636.98435,283.9866996 -636.98435,636.9842896 0,352.99759 283.98682,636.98438 636.98435,636.98438 z"
   fill="#2775ca"
   id="path2"
   style="stroke-width:0.636984" /><path
   d="m 824.77393,739.39867 c 0,-92.89147 -55.73618,-124.74066 -167.2083,-138.00906 -79.6231,-10.61852 -95.54767,-31.84921 -95.54767,-69.01086 0,-37.16167 26.54303,-61.04221 79.62298,-61.04221 47.77383,0 74.317,15.9246 87.58532,55.73611 2.65624,7.96232 10.6186,13.2684 18.58081,13.2684 h 42.46136 c 10.61858,0 18.58093,-7.9623 18.58093,-18.57447 v -2.65622 C 798.23078,460.71801 750.45694,415.6004 689.41477,410.29432 V 346.5959 c 0,-10.61852 -7.96234,-18.58084 -21.23067,-21.23705 h -39.81149 c -10.61859,0 -18.58094,7.9623 -21.23705,21.23705 v 61.04221 c -79.6231,10.61853 -130.04668,63.69843 -130.04668,130.05307 0,87.58535 53.07981,122.08439 164.55206,135.35915 74.317,13.26839 98.20392,29.193 98.20392,71.66081 0,42.46774 -37.16163,71.66072 -87.58546,71.66072 -69.01076,0 -92.8978,-29.19936 -100.86003,-69.01087 -2.64986,-10.61217 -10.61208,-15.92461 -18.57443,-15.92461 h -45.12397 c -10.61209,0 -18.57443,7.96229 -18.57443,18.58082 v 2.65623 c 10.61208,66.34829 53.07981,114.12211 140.66513,127.39687 v 63.69837 c 0,10.61222 7.96235,18.57456 21.23068,21.23068 h 39.81161 c 10.61847,0 18.58081,-7.96222 21.23706,-21.23068 V 880.0703 c 79.62297,-13.27476 132.70291,-69.01088 132.70291,-140.67163 z"
   fill="#ffffff"
   id="path4"
   style="stroke-width:0.636984" /><path
   d="M 514.24412,1018.0793 C 307.22421,943.76867 201.05803,712.86192 278.0312,508.49183 317.8428,397.01958 405.42813,312.09046 514.24412,272.27895 c 10.61848,-5.3061 15.92457,-13.26839 15.92457,-26.54313 v -37.1553 c 0,-10.61853 -5.30609,-18.58084 -15.92457,-21.2307 -2.65623,0 -7.96234,0 -10.61858,2.64986 -252.13746,79.62304 -390.15289,347.6915 -310.52982,599.82904 47.77378,148.6276 161.90233,262.75608 310.52982,310.52988 10.61858,5.306 21.23706,0 23.88692,-10.6186 2.65623,-2.6498 2.65623,-5.3061 2.65623,-10.612 v -37.1618 c 0,-7.9623 -7.96234,-18.5744 -15.92457,-23.8869 z M 795.58104,189.99968 c -10.6186,-5.30608 -21.23706,0 -23.88705,10.61853 -2.65624,2.65621 -2.65624,5.30607 -2.65624,10.61853 v 37.15529 c 0,10.61853 7.96235,21.23069 15.92469,26.54313 207.01991,74.3106 313.18606,305.21741 236.21296,509.58749 -39.81163,111.47225 -127.39695,196.40139 -236.21296,236.21285 -10.61846,5.3061 -15.92469,13.2684 -15.92469,26.5432 v 37.1552 c 0,10.6186 5.30623,18.5809 15.92469,21.2307 2.65625,0 7.96223,0 10.6186,-2.6498 C 1047.7184,1023.3918 1185.7339,755.32328 1106.1108,503.18576 1058.337,351.90198 941.55228,237.7735 795.58104,189.99968 Z"
   fill="#ffffff"
   id="path6"
   style="stroke-width:0.636984" /><path
   d="M 2270.9194,1109.8096 1575.2408,96.232727 877.4374,1109.8096 h 972.2034 l -274.4,-386.83292 -136.1142,200.9963 H 1294.467 l 280.8681,-404.11782 406.029,590.00164 z"
   fill="url(#a)"
   id="path7"
   style="fill:url(#a);stroke-width:47.2196" /></svg>
