<svg width="20" height="20" viewBox="0 0 20 20" fill="none" xmlns="http://www.w3.org/2000/svg">
<rect width="20" height="20" rx="10" fill="#0FFD6A"/>
<path d="M12.0766 8.784C12.4449 8.79802 12.8161 8.78642 13.1807 8.83283C13.5021 8.87392 13.8231 8.95322 14.0989 9.15821C14.418 9.39511 14.6031 9.71856 14.6883 10.114C14.7596 10.4433 14.7385 10.7725 14.703 11.1023C14.692 11.2043 14.6758 11.3068 14.6482 11.4049C14.621 11.5007 14.6431 11.5804 14.6772 11.6689C14.8112 12.0131 14.8775 12.3671 14.8121 12.7417C14.7675 12.9975 14.6703 13.2243 14.5022 13.4128C14.4332 13.4902 14.4111 13.5719 14.4078 13.6753C14.3968 14.0409 14.3328 14.3909 14.1191 14.696C14.0077 14.8555 13.8664 14.9774 13.7208 15.0977C13.6771 15.1345 13.6366 15.1867 13.6154 15.2408C13.5726 15.352 13.5454 15.47 13.5086 15.5841C13.4363 15.8099 13.3281 16.0212 13.1757 16.1914C12.9588 16.4336 12.6917 16.5844 12.362 16.6173C12.0973 16.6434 11.8399 16.6279 11.583 16.5743C11.3739 16.5308 11.186 16.5849 11.0028 16.6831C10.872 16.7532 10.7435 16.8291 10.6082 16.8866C10.3126 17.0128 10.005 17.0263 9.69233 16.9722C9.39763 16.9214 9.11768 16.818 8.86074 16.6676C8.55316 16.4873 8.25202 16.2895 7.99279 16.0323C7.90208 15.9424 7.81045 15.8544 7.71605 15.7693C7.54706 15.6175 7.35275 15.6015 7.14739 15.6624C7.05852 15.689 6.97104 15.7238 6.88309 15.7533C6.63168 15.8389 6.41757 15.7562 6.23799 15.5754C6.00546 15.3409 5.83233 15.0557 5.6615 14.7704C5.44324 14.4068 5.26781 14.0191 5.15362 13.6072C5.02653 13.1488 4.94964 12.6784 5.03804 12.2012C5.08823 11.9295 5.13888 11.653 5.28807 11.4122C5.34379 11.3218 5.39259 11.2265 5.44186 11.1323C5.57724 10.8726 5.80792 10.7677 6.06624 10.7121C6.43691 10.6323 6.7293 10.4244 6.98393 10.1358C7.16627 9.92936 7.25698 9.6707 7.38913 9.43573C7.51069 9.21961 7.6037 8.98609 7.71697 8.76466C7.903 8.40253 8.08994 8.03993 8.28794 7.68457C8.43666 7.41817 8.59967 7.15951 8.76451 6.90375C8.84923 6.77225 8.90034 6.63252 8.93073 6.47926C9.01408 6.05912 9.02375 5.63075 9.0638 5.20626C9.08821 4.95195 9.13978 4.70054 9.17754 4.4472C9.20516 4.26251 9.28114 4.0991 9.37001 3.94051C9.51919 3.67654 9.74436 3.55035 10.0317 3.54164C10.4921 3.52811 10.8269 3.75728 11.0926 4.13632C11.3744 4.53858 11.5199 4.99015 11.5756 5.48039C11.6143 5.82028 11.5401 6.14131 11.4204 6.45025C11.2026 7.0106 11.0005 7.5753 10.9268 8.18062C10.913 8.29327 10.9084 8.40495 10.9383 8.5205C10.9811 8.68585 11.0336 8.75934 11.1943 8.7811C11.3403 8.80092 11.4881 8.81107 11.635 8.81252C11.7819 8.81397 11.9288 8.80044 12.0756 8.79318C12.0761 8.79173 12.0766 8.78787 12.0766 8.784ZM12.1272 9.43379C12.1272 9.43669 12.1272 9.43959 12.1272 9.4425C12.0844 9.4454 12.0416 9.44878 11.9987 9.45071C11.7096 9.4599 11.4209 9.47827 11.1322 9.42992C10.7311 9.36272 10.5041 9.09487 10.4023 8.71728C10.3093 8.37207 10.348 8.0201 10.418 7.67973C10.5327 7.1218 10.7251 6.58804 10.9319 6.06057C10.9968 5.89522 11.0387 5.7231 11.0129 5.54131C10.995 5.41174 10.9825 5.27878 10.9489 5.15308C10.855 4.80014 10.6952 4.4912 10.4019 4.26928C10.2292 4.13874 9.88019 4.16098 9.80744 4.40804C9.78534 4.48346 9.73607 4.55308 9.72456 4.62899C9.68312 4.90457 9.64858 5.18209 9.61819 5.45912C9.57721 5.83768 9.55281 6.21866 9.50262 6.59578C9.46854 6.8496 9.38106 7.08651 9.23371 7.30069C9.07486 7.53179 8.92613 7.77159 8.78891 8.0172C8.59322 8.36772 8.4118 8.72743 8.22439 9.08327C8.17421 9.17852 8.12171 9.27183 8.07567 9.36852C7.9495 9.63444 7.8284 9.90325 7.69994 10.1682C7.65619 10.2591 7.60554 10.349 7.54338 10.4264C7.41169 10.5903 7.28184 10.7547 7.11884 10.8915C6.84487 11.1216 6.54189 11.2821 6.20161 11.3532C6.04045 11.3866 5.93041 11.4707 5.85351 11.609C5.66518 11.9464 5.57632 12.3144 5.57632 12.705C5.57586 13.1498 5.71399 13.5598 5.88068 13.9591C6.04782 14.3599 6.29232 14.711 6.54742 15.0542C6.60451 15.1311 6.67312 15.1422 6.7514 15.1195C6.83566 15.0953 6.91578 15.0557 7.0005 15.0339C7.40709 14.928 7.77407 14.9923 8.08534 15.3105C8.2138 15.4415 8.34734 15.5696 8.49146 15.6798C8.76359 15.8897 9.04124 16.0894 9.36218 16.2189C9.61819 16.3224 9.87421 16.3751 10.1459 16.3354C10.1919 16.3287 10.2357 16.303 10.2808 16.2861C10.2499 16.2503 10.2237 16.2078 10.1878 16.1788C10.0335 16.0536 9.92071 15.9022 9.85671 15.7035C9.77659 15.4541 9.77935 15.2075 9.84197 14.9595C9.86315 14.8744 9.94788 14.7883 9.93453 14.7172C9.91841 14.6326 9.82033 14.5688 9.7706 14.4876C9.60944 14.2251 9.59333 13.9277 9.62188 13.6313C9.63523 13.494 9.66516 13.3495 9.76646 13.2359C9.83921 13.1542 9.82816 13.0555 9.79915 12.9472C9.65871 12.428 9.73423 11.9629 10.1477 11.6027C10.2099 11.5485 10.2255 11.4905 10.2182 11.4267C10.1786 11.0989 10.3103 10.8281 10.4995 10.598C10.7518 10.2915 11.0976 10.1542 11.4775 10.1092C11.7708 10.0744 12.0609 10.0952 12.3515 10.1498C12.6204 10.2006 12.8805 10.2054 13.0767 9.94144C13.1494 9.8433 13.3576 9.8549 13.4423 9.93661C13.5542 10.0444 13.5938 10.2639 13.5159 10.3771C13.2926 10.6995 12.9791 10.8281 12.6112 10.8228C12.4868 10.8209 12.362 10.7972 12.2391 10.774C11.9895 10.7261 11.7381 10.7227 11.4895 10.7663C11.2556 10.8074 11.041 10.9031 10.8803 11.1008C10.7155 11.3034 10.7578 11.4886 10.9963 11.5737C11.1253 11.6196 11.2565 11.6597 11.39 11.6873C11.7414 11.7593 12.0945 11.8231 12.4468 11.8889C12.5163 11.9019 12.5872 11.9126 12.6577 11.9155C13.1683 11.9363 13.6011 11.7245 13.999 11.4141C14.0427 11.3798 14.0818 11.3174 14.0929 11.2613C14.1643 10.9036 14.2099 10.54 14.1302 10.1803C14.0874 9.98689 13.9819 9.81574 13.812 9.70309C13.5998 9.5624 13.3645 9.48794 13.1181 9.47102C12.788 9.44588 12.4574 9.44443 12.1272 9.43379ZM12.6121 13.4346C12.6135 13.4293 12.6139 13.4239 12.6153 13.4191C12.6738 13.4162 12.7327 13.4118 12.7912 13.4109C13.1172 13.4041 13.4229 13.3021 13.7241 13.1851C13.8102 13.1517 13.9023 13.1169 13.9718 13.0575C14.2135 12.8505 14.3139 12.5808 14.2573 12.2539C14.2223 12.0523 14.2227 12.0552 14.0524 12.1606C13.5869 12.4492 13.0886 12.6214 12.5425 12.5585C12.2036 12.5193 11.8671 12.4488 11.5309 12.384C11.2372 12.3269 10.9443 12.2646 10.6786 12.1065C10.5985 12.0586 10.523 12.1065 10.4585 12.1679C10.2932 12.325 10.2661 12.5218 10.3245 12.7316C10.3457 12.8085 10.3959 12.8979 10.4585 12.9371C10.6119 13.0328 10.7721 13.1184 10.9544 13.1493C11.1534 13.1836 11.3481 13.2436 11.547 13.2765C11.9016 13.335 12.2575 13.3824 12.6121 13.4346ZM12.5232 14.7279C12.7184 14.7023 12.9418 14.6887 13.1577 14.6394C13.4989 14.562 13.6964 14.3145 13.7945 13.9727C13.8033 13.9422 13.7991 13.9079 13.801 13.8755C13.7655 13.8779 13.7291 13.8755 13.6951 13.8842C13.5159 13.9292 13.3396 13.9911 13.1586 14.0215C12.869 14.0699 12.578 14.0955 12.2842 14.0302C12.0931 13.9877 11.8979 13.9654 11.7041 13.9393C11.2993 13.8857 10.8969 13.8233 10.5156 13.6594C10.4613 13.6362 10.406 13.6135 10.3512 13.5912C10.2969 13.5695 10.2568 13.5811 10.232 13.6415C10.1694 13.7948 10.1509 13.9495 10.2154 14.1066C10.2278 14.1366 10.2458 14.1719 10.2707 14.1864C10.3798 14.2492 10.4875 14.3193 10.604 14.3619C10.8877 14.4649 11.1814 14.5272 11.4789 14.5703C11.8178 14.6201 12.1558 14.6723 12.5232 14.7279ZM12.0029 15.9912C12.0835 15.9873 12.1673 15.9956 12.246 15.9767C12.4532 15.9274 12.6664 15.8844 12.7921 15.6711C12.8349 15.5981 12.8842 15.529 12.9252 15.4545C12.9675 15.3782 12.945 15.3443 12.8547 15.3472C12.7405 15.3511 12.6245 15.3753 12.5126 15.3622C12.1461 15.3197 11.7805 15.2708 11.4163 15.2114C11.1529 15.1683 10.8923 15.106 10.6307 15.0494C10.5552 15.033 10.4894 15.0436 10.4364 15.104C10.3144 15.2428 10.3457 15.5251 10.4866 15.645C10.6464 15.7814 10.8375 15.8278 11.0295 15.8597C11.3523 15.9138 11.6773 15.9482 12.0029 15.9912Z" fill="black"/>
<path d="M13.6244 3.10261C14.316 3.32404 14.8759 3.74466 15.3 4.35868C15.3714 4.46166 15.4285 4.58011 15.4727 4.69905C15.5583 4.92725 15.5533 5.15159 15.4087 5.35996C15.3074 5.50597 15.1987 5.64812 15.1163 5.80573C14.9128 6.19203 14.5808 6.22587 14.2272 6.1606C13.6815 6.06004 13.2169 5.7714 12.7988 5.40251C12.5341 5.16899 12.3071 4.89921 12.1634 4.56126C12.057 4.31082 12.0239 4.07198 12.1979 3.83459C12.3024 3.69245 12.3991 3.5416 12.4843 3.38496C12.6708 3.04217 12.9623 2.96385 13.3044 3.01365C13.4126 3.02863 13.5176 3.07215 13.6244 3.10261ZM14.1424 5.73853C14.2295 5.74771 14.339 5.76512 14.4486 5.76899C14.718 5.77817 14.7834 5.67616 14.6747 5.41895C14.6452 5.34836 14.6084 5.27922 14.5642 5.21831C14.1475 4.65457 13.6309 4.24893 12.9563 4.08213C12.7956 4.04249 12.6243 3.97818 12.5179 4.13435C12.4074 4.29631 12.5295 4.45731 12.6215 4.59123C13.001 5.1424 13.5199 5.49485 14.1424 5.73853ZM13.4241 3.43814C13.3422 3.43427 13.1838 3.41397 13.0272 3.42654C12.9701 3.43137 12.919 3.51356 12.8647 3.56046C12.9107 3.59334 12.9531 3.64168 13.0042 3.65619C13.8031 3.88342 14.4597 4.32242 14.9201 5.05876C14.933 5.07955 14.9533 5.09599 14.9717 5.11339C15.0385 5.17624 15.0827 5.14095 15.1075 5.07084C15.1715 4.89147 15.0951 4.72854 15.0021 4.60139C14.6116 4.06763 14.1102 3.6852 13.4241 3.43814Z" fill="black"/>
</svg>
