<svg width="256" height="256" viewBox="0 0 256 256" fill="none" xmlns="http://www.w3.org/2000/svg"><path d="M128 256c70.692 0 128-57.308 128-128C256 57.308 198.692 0 128 0 57.308 0 0 57.307 0 128c0 70.692 57.307 128 128 128Z" fill="#fff"/><path d="m128.181 19.416-19.923 11.456-54.292 31.38-19.924 11.456v108.584l19.924 11.456 54.79 31.38 19.924 11.456 19.924-11.456 53.794-31.38 19.924-11.456V73.708l-19.925-11.456-54.292-31.38-19.924-11.456ZM73.889 159.38V96.616l54.292-31.38 54.292 31.38v62.76l-54.292 31.38-54.292-31.376Z" fill="#2A5ADA"/></svg>
