<svg xmlns="http://www.w3.org/2000/svg" id="Group_45698" width="256" height="256" viewBox="0 0 256 256"><defs><style>.cls-2{fill:#2bbdf7}.cls-2,.cls-3,.cls-4{fill-rule:evenodd}.cls-3{fill:#2891f9}.cls-4{fill:#2b6def}</style></defs><circle id="Ellipse_1480" cx="128" cy="128" r="128" fill="#fff"/><g id="matic_cryptocurrency_logo_icon_131424" transform="translate(38 57)"><path id="Path_12969" d="m187.763 146.672 20.137 44.651 29.966-17.274.023-.009v-34.576z" class="cls-2" transform="translate(-117.947 -87.607)"/><path id="Path_12970" d="m361.459 55.115-18.7-7.045-19.989-1.615V153.9l29.988 17.283 23.67-48.44L361.5 75.907z" class="cls-3" transform="translate(-202.752 -29.182)"/><path id="Path_12971" d="m410.024 46.553-6.946 17.279h-.009v107.433l29.993-17.279V46.553z" class="cls-2" transform="translate(-253.195 -29.243)"/><path id="Path_12972" d="m352.759 0-29.993 17.292 29.993 17.288 29.993-17.288z" class="cls-4" transform="translate(-202.752)"/><path id="Path_12973" d="M89.97 98.314v-.009L59.982 64.749 0 46.456v107.433l29.984 17.288 8.569-59.454 21.428 3.892v-.015l29.993 17.283V98.314z" class="cls-3" transform="translate(0 -29.182)"/><path id="Path_12974" d="M30 0 0 17.288l89.961 51.876 13.594-7.834 16.394-9.458z" class="cls-4"/><path id="Path_12975" d="M80.7 185.92v72.858l29.993-17.283v-38.287z" class="cls-2" transform="translate(-50.688 -116.789)"/></g></svg>
