<?xml version="1.0" encoding="UTF-8" standalone="no"?>
<svg
   xmlns:dc="http://purl.org/dc/elements/1.1/"
   xmlns:cc="http://creativecommons.org/ns#"
   xmlns:rdf="http://www.w3.org/1999/02/22-rdf-syntax-ns#"
   xmlns:svg="http://www.w3.org/2000/svg"
   xmlns="http://www.w3.org/2000/svg"
   xmlns:sodipodi="http://sodipodi.sourceforge.net/DTD/sodipodi-0.dtd"
   xmlns:inkscape="http://www.inkscape.org/namespaces/inkscape"
   version="1.0"
   id="Layer_1"
   x="0px"
   y="0px"
   viewBox="0 0 700 700"
   xml:space="preserve"
   sodipodi:docname="quickswap.svg"
   width="700"
   height="700"
   inkscape:version="1.0.1 (3bc2e813f5, 2020-09-07)"><metadata
   id="metadata107"><rdf:RDF><cc:Work
       rdf:about=""><dc:format>image/svg+xml</dc:format><dc:type
         rdf:resource="http://purl.org/dc/dcmitype/StillImage" /><dc:title></dc:title></cc:Work></rdf:RDF></metadata><defs
   id="defs105" /><sodipodi:namedview
   pagecolor="#ffffff"
   bordercolor="#666666"
   borderopacity="1"
   objecttolerance="10"
   gridtolerance="10"
   guidetolerance="10"
   inkscape:pageopacity="0"
   inkscape:pageshadow="2"
   inkscape:window-width="1704"
   inkscape:window-height="956"
   id="namedview103"
   showgrid="false"
   inkscape:zoom="1.0744304"
   inkscape:cx="493.75"
   inkscape:cy="365.4937"
   inkscape:window-x="0"
   inkscape:window-y="112"
   inkscape:window-maximized="0"
   inkscape:current-layer="Layer_1" />
<style
   type="text/css"
   id="style2">
	.st0{fill:#FFFFFF;}
	.st1{fill:#4189C9;}
	.st2{fill:#262F71;}
	.st3{fill:#161F42;}
	.st4{fill:#5C94CE;}
	.st5{fill:#6497D0;}
	.st6{fill:#689AD1;}
	.st7{fill:#4E8FCC;}
	.st8{fill:#5591CD;}
	.st9{fill:#418AC9;}
	.st10{fill:#468CCA;}
	.st11{fill:#488DCA;}
	.st12{fill:#428AC9;}
	.st13{fill:#182144;}
	.st14{fill:#458CCA;}
	.st15{fill:#63657D;}
	.st16{fill:#263154;}
	.st17{fill:#A09AA9;}
	.st18{fill:#424A7F;}
	.st19{fill:#8CB7DE;}
	.st20{fill:#5A5D76;}
	.st21{fill:#4F668A;}
	.st22{fill:#555A73;}
	.st23{fill:#6D9CD2;}
	.st24{fill:#729FD4;}
	.st25{fill:#78A2D5;}
	.st26{fill:#7DA5D6;}
	.st27{fill:#81A7D8;}
	.st28{fill:#0E1F66;}
	.st29{fill:#699AD1;}
	.st30{fill:#88ABD9;}
</style>
<g
   id="g100"
   transform="translate(-141.47031,-11.168709)">
	<path
   class="st0"
   d="m 473.5,10.1 c 173,-10 327.4,107.6 363.7,277 9.9,46.5 10.3,94.6 1.2,141.3 C 815.7,543.6 737.1,639.8 628.8,685.1 555,716.1 470.6,720.4 393.9,697.6 288.8,666.3 204.2,587.8 165.2,485.3 137.2,411.8 135,328.9 159,254 203.2,115.4 328.3,18.4 473.5,10.1"
   id="path4" />
	<g
   id="g98">
		<path
   class="st1"
   d="m 277.6,335.3 c 1.4,6.4 2.2,12.9 3.6,19.4 0.9,3.9 2.1,3 4.1,1.3 3.9,-3.2 7.6,-6.7 11.9,-9.3 1.2,0.2 1.9,1.2 2.5,2.1 11.4,14.9 26.5,24 44.4,28.9 8.2,2.3 16.7,3.8 25.2,4.7 -2.7,-3 -4.9,-6.3 -6.6,-10 -2.9,-6.4 -1.9,-12.1 3,-17.2 5.9,-6.2 13.6,-8.8 21.5,-10.8 16.5,-4.3 33.3,-4.7 50.2,-3.5 13.6,0.9 27,3.2 40.2,6.9 11,3.1 21.7,6.7 31.4,12.9 1.4,1.1 2.3,2.6 3.6,3.7 12.5,13.4 19.8,29.2 20.3,47.5 0.3,12.6 -3.2,24.7 -9.5,35.8 -11.4,20 -28.1,34.6 -48,45.7 -20.2,11.3 -42.5,18.3 -65.6,20.7 -41.2,4.5 -79.5,-4.5 -114.6,-26.4 -29.2,-18.2 -51.7,-43.1 -70,-71.9 -8.5,-13.7 -16,-28 -22.5,-42.8 -0.8,-1.8 -1,-3.8 -1.8,-5.3 0.5,1.8 1.5,3.7 -0.4,5.6 -0.6,-7.5 0.1,-14.9 0.5,-22.3 1,-20.5 4.2,-40.8 9.5,-60.5 C 234.6,201.4 299.2,128.9 385,94.7 410.8,84.4 437.9,78 465.5,75.5 c 43.6,-4 85.8,1.7 127,16.3 -6.3,11.9 -42,43.7 -69.8,62.2 -0.8,-8 -2.6,-15.9 -5.4,-23.5 -0.1,-2 1.7,-2.6 2.8,-3.6 5.8,-5 11.6,-9.9 17.4,-14.8 0.6,-0.5 1.2,-1 1.7,-1.5 0.7,-0.7 1.8,-1.3 1.5,-2.4 -0.2,-1.1 -1.5,-1.1 -2.5,-1.3 -2.7,-0.6 -5.4,-0.9 -8.2,-1 -3.8,-0.4 -7.6,-1.3 -11.4,-1.4 -3,-0.2 -5.9,-0.9 -8.8,-0.7 -1.5,0 -3,-0.1 -4.5,-0.3 -2.5,-0.8 -5.1,-0.4 -7.6,-0.4 -1.5,0 -3,-0.1 -4.6,0 -4.4,0.2 -8.7,-0.5 -13.1,0.3 -1.1,0.2 -2.1,0.3 -3.2,0.3 -1.3,0 -2.5,0.1 -3.8,0 -1.6,-0.2 -3.3,0 -4.9,0.5 -4.6,0.4 -9.2,0.8 -13.7,1.6 -5.5,1.2 -11.1,1.4 -16.5,2.8 -5,1.3 -10.1,2 -15,3.7 -6.5,1.8 -13,3.8 -19.4,6 -9.3,3.7 -18.8,7.1 -27.7,11.9 -20.1,9.8 -38.9,22.2 -55.7,36.9 -15.6,13.5 -29.6,28.7 -41.7,45.4 -6,8.4 -11.6,17.1 -16.5,26.2 -3.2,5.9 -6.2,11.9 -9,18 -2,4.7 -4.4,9.3 -6,14.2 -2,4.9 -3.6,9.9 -5.2,15 -1.9,5.1 -3,10.4 -4.4,15.5 -0.6,2 -1,4.1 -1.5,6.2 -0.6,2.5 -1,5 -1.5,7.5 -0.8,4.2 -1.5,8.5 -2.1,12.8 -0.8,4.4 -1.3,8.8 -1.6,13.3 -0.7,2.9 -0.2,6 -0.7,9 -0.8,3.7 -0.3,7.5 -0.5,11.2 -0.1,2.6 -0.2,5.2 -0.1,7.8 0,1.1 -0.5,2.6 0.6,3.1 1.3,0.6 2.2,-0.8 3.2,-1.5 3.2,-2.6 6.3,-5.3 9.4,-8 10.5,-9 21.1,-17.9 31.6,-26.9 0.9,-0.6 1.9,-2.6 3.5,-0.6 z"
   id="path6" />
		<path
   class="st2"
   d="m 508.9,361.5 c -12.4,-7.4 -25.9,-11.6 -39.8,-14.9 -18.2,-4.3 -37,-6.1 -55.7,-5.1 -13.2,0.7 -26.3,2.5 -38.5,8.3 -1.5,0.7 -2.9,1.5 -4.2,2.4 -9.9,6.6 -11.4,15.4 -4.2,24.9 1.5,2 3.1,3.8 5.1,6.2 -6.4,0 -12.1,-1.2 -17.7,-2.3 -15.1,-3 -29.3,-8.2 -41.5,-18 -5.9,-4.7 -11.2,-9.9 -15.1,-16.5 1.6,-2.6 4.3,-3.8 6.8,-5.3 4.8,-2 9.2,-4.9 14,-7.1 21.3,-9.8 44.1,-15.8 67.4,-18 9.3,-0.9 18.6,-1.8 28,-1.4 27.6,1.1 55,5.9 81.3,14.2 6.8,2.1 13.5,4.5 20.6,6.8 0,-2 -1.1,-3.2 -1.9,-4.5 -2.8,-4.8 -6.1,-9.4 -9.7,-13.7 -1.3,-1.6 -3.2,-2.9 -3.1,-5.3 3.7,0.9 7.5,1.7 11.2,2.6 1,0.2 2.2,0.8 2.8,0 0.9,-1.1 -0.4,-2 -1,-2.8 -5.5,-8.2 -12.3,-15.2 -19.7,-21.7 3.9,-2.3 7.9,-0.4 11.7,0.1 38.9,5 74.3,18.8 105.2,43 40.9,32.1 67.3,73.5 78.5,124.5 3.6,17 4.7,34.5 3.4,51.8 -2.2,30.1 -11.7,57.9 -29.5,82.6 -1.2,1.6 -2.8,2.9 -3.6,4.8 -4,6 -10,10.1 -15.4,14.5 -29.5,24 -64,36.5 -101.1,42.3 -28.9,4.6 -58.3,5.1 -87.3,1.5 -45.7,-5.6 -89.4,-22.1 -127.4,-48.1 -9.3,-6.3 -18.4,-12.8 -26.5,-20.6 -0.3,-0.2 -0.3,-0.6 -0.1,-0.9 0,0 0.1,-0.1 0.1,-0.1 1.7,-0.7 2.8,0.6 4,1.4 19.4,14.6 41.5,25.3 65,31.6 7.9,2 15.8,3.6 23.9,4.8 1.8,0.7 3.8,0.3 5.6,0.7 0.4,0 0.8,0.1 1.1,0.2 18.2,2.2 36.4,0.9 54.4,-2.3 39.5,-7 74.7,-23.5 104.7,-50.2 20.5,-18.1 36.7,-39.5 45.3,-65.9 8.6,-26.4 7.4,-52.1 -4.7,-77.5 -2.5,11.4 -8.4,20.8 -15.9,29.4 -7.5,8.4 -16.3,15.6 -26.1,21.2 -1.1,0.7 -2.4,1.9 -3.7,0.9 -1.1,-0.9 -0.5,-2.4 -0.1,-3.5 2.4,-7.9 4,-16 4.9,-24.2 3.5,-34.5 -9.8,-61.4 -37.3,-81.7 -4.6,-3.4 -9.3,-6.4 -14.2,-9.1 z"
   id="path8" />
		<path
   class="st3"
   d="m 394.9,624.2 c -10.1,-1 -20.1,-3.1 -29.9,-6.1 -18.4,-5.6 -35.8,-13.7 -51.9,-24.3 -3.8,-2.5 -7.1,-5.9 -11.2,-7.9 -2.4,-0.3 -3.4,-2.7 -5.3,-3.7 -40.4,-35.9 -68,-80 -83.8,-131.5 -7.7,-25 -11.9,-51 -12.3,-77.2 0.1,-2 0.2,-3.9 0.4,-7 2,4.4 3.5,7.8 5.1,11.3 14.5,31.9 33.1,60.9 58.7,85.1 27.2,25.7 58.9,42.9 96.2,48.9 43.7,7.1 84.6,-0.5 122.2,-24.1 18.8,-11.8 34.1,-26.9 43,-47.6 10.7,-25.1 6.7,-48.4 -9.7,-69.9 -1.4,-1.9 -3,-3.7 -4.4,-5.5 1.9,-1.7 3,0.3 4.1,1.2 9.7,8.1 17.4,18.3 22.6,29.9 5,11.1 7.7,23 7.8,35.2 0.2,12.4 -2.6,24.7 -8,35.9 1.2,0 2.3,-0.4 3.2,-1.2 5.2,-3 10.1,-6.5 14.7,-10.4 1.4,-1.2 2.7,-3.1 5,-2.8 -1.2,9.4 -3.3,18.7 -6.1,27.8 6,-3.4 11.8,-7.2 17.3,-11.5 4.3,-3.4 7.8,-7.6 12.1,-11.1 1.8,0.8 1.8,2.6 2.2,4.1 6.9,25 1.9,48.3 -10.4,70.3 -15,26.7 -37,46.6 -62.6,62.7 -20.7,13 -43.4,22.3 -67.3,27.5 -15,3.4 -30.4,4.3 -45.7,2.7 v 0 c -2,-1.1 -4.1,0.1 -6,-0.8 z"
   id="path10" />
		<path
   class="st1"
   d="m 772.9,438.8 c -1.3,-28.6 -8.4,-56.6 -20.8,-82.4 -8.1,-16.8 -18.3,-32.5 -30.4,-46.7 -10.9,-12.9 -23.4,-23.9 -36.6,-34.4 1.2,-1.2 2.8,-1 4.2,-0.8 18.4,2.1 36.4,6.4 53.8,12.8 4.3,1.6 8.5,3.5 12.5,5.8 1.4,0.7 2.8,1.5 4.2,2.4 0.3,0.2 0.5,0.7 1,0.6 -0.3,-0.4 -0.4,-0.9 -0.2,-1.4 -11.8,-15.4 -26.2,-28.3 -41.2,-40.5 -17.9,-14.5 -37.4,-26.9 -58.2,-36.9 -28.8,-14.2 -59.7,-23.5 -91.6,-27.4 -2.8,-0.4 -5.8,0 -8.5,-1 -0.2,-1.9 1.4,-2.5 2.5,-3.4 18.7,-15.6 33.7,-34 44.3,-55.9 3.2,-6.6 5.9,-13.5 8.1,-20.5 0.6,-2 1,-4.2 3,-5.4 33.5,16.1 63.5,38.5 88.5,66 66.4,73 91.4,174.5 66.6,270 -0.7,0.3 -0.8,-0.4 -1.2,-0.9 z"
   id="path12" />
		<path
   class="st3"
   d="m 659.6,597.1 c 0,-2.9 2.3,-4.6 3.8,-6.7 13.7,-19.5 22,-41.1 26.3,-64.5 2.7,-14.5 2.9,-29.1 2,-43.6 -1.5,-22.3 -7.2,-43.8 -16.2,-64.4 -6.6,-15.1 -14.9,-29.4 -24.7,-42.6 -10.5,-13.9 -22.7,-26.6 -36.2,-37.6 -20.8,-17.2 -44.8,-30.1 -70.6,-38.1 -13.7,-4.4 -27.9,-7.3 -42.2,-8.7 -2.6,-0.2 -5.1,-0.9 -7.8,-0.7 -9.1,-6.7 -18.4,-13.2 -28.8,-17.9 l 0.1,-1 c 3.7,0 7.5,0.1 11.2,0 52.4,-0.9 100.8,11.9 143,43.8 43.7,33.1 71.1,76.8 81.3,130.8 8.7,46 2,89.5 -23.6,129.4 -5,8.1 -10.5,15.6 -17.6,21.8 z"
   id="path14" />
		<path
   class="st3"
   d="m 619.2,103.7 c -5.2,16.1 -11.8,31.5 -21.3,45.6 -9.5,14.2 -21.1,26.9 -34.4,37.7 -0.8,0.6 -1.5,1.3 -2.2,2 -4.6,2.3 -8.4,5.9 -12.6,8.7 -15.5,10.2 -32.1,18.8 -49.4,25.5 -0.4,0.1 -0.9,0.2 -1.3,0.3 -0.8,-1.1 0.1,-1.5 0.6,-2 9.8,-9.4 15.9,-20.9 20,-33.7 0.4,-1.7 1.6,-3.1 3.2,-3.6 30.5,-12.1 54.9,-32.1 74.8,-57.9 1.8,-2.3 3.6,-4.7 5.8,-7.7 -6.2,-0.1 -10.9,3 -16.1,3.8 -1,0.1 -2.3,0.9 -2.5,-1 18.9,-22.1 33.2,-47.9 41.8,-75.6 0.5,-1.8 0,-4.2 2.5,-5.1 0.2,0.1 0.3,0.3 0.2,0.5 0,0.2 -0.1,0.3 -0.1,0.3 -0.3,19.8 -3.1,39.5 -8.3,58.6 -0.3,1.1 -0.5,2.3 -0.7,3.6 z"
   id="path16" />
		<path
   class="st3"
   d="m 500.6,312.3 c 6.2,6.8 11.6,14.4 16.1,22.5 0.4,0.8 1.5,1.7 0.5,2.6 -0.8,0.7 -1.6,-0.2 -2.4,-0.5 -20.3,-7.6 -41.2,-13.3 -62.6,-17 -10.8,-1.9 -21.7,-2.7 -32.6,-3.5 -9.8,-0.6 -19.7,-0.5 -29.5,0.4 -22.4,1.8 -44.2,6.6 -65,15.6 -6.4,2.8 -12.9,5.3 -18.9,9 -0.7,0.4 -1.5,1.1 -2.3,0.1 18,-12.7 38,-22.3 59.2,-28.4 29.2,-8.7 58.9,-10.8 89.2,-8.5 15.4,1.2 30.7,3.6 45.7,7 1,0.1 1.8,0.4 2.6,0.7 z"
   id="path18" />
		<path
   class="st4"
   d="m 493.1,102.1 h 4.5 c 2.4,1 5.1,-0.3 7.5,0.7 h 4.5 c 0.4,2.2 -1.4,3.1 -2.6,4.1 -20.8,17.6 -41.4,35.3 -62.2,52.8 -6.9,5.8 -13.7,11.6 -20.5,17.4 -1.1,0.7 -1.9,1.7 -2.4,2.8 -9,3.4 -17.4,7.6 -24,14.9 -3.1,3.5 -5.2,7.5 -7.4,11.5 -6.2,4 -11.4,9.3 -17,14 -14.8,12.4 -29.4,25.1 -44.2,37.4 -1.2,1 -2.1,2.5 -3.5,3.3 -2.5,-3.8 -2,-8 -1.4,-12.1 1.9,-3.1 4.8,-5 7.4,-7.3 14.4,-12.2 28.7,-24.4 43,-36.6 14,-11.9 27.9,-23.8 41.9,-35.6 16.1,-13.6 32.1,-27.3 48.2,-41 8.9,-7.6 17.8,-15.3 26.9,-22.7 1.4,-0.9 2.3,-1.8 1.3,-3.6 z"
   id="path20" />
		<path
   class="st3"
   d="m 756.3,294.2 c -17.6,-8.5 -36.3,-13.8 -55.5,-16.9 -5.2,-0.8 -10.3,-1.9 -15.5,-1.9 -6.7,-4.2 -13.3,-8.7 -20.2,-12.7 -22.3,-12.9 -46.7,-21.7 -72.2,-25.8 -0.6,-0.2 -1.1,-0.4 -1.6,-0.6 7.6,-1.4 33.7,2.5 51.7,7.5 16.8,4.6 33,10.9 48.5,19 -1.6,-4.9 -4.6,-8.1 -6.4,-12 -0.2,-1 -1.6,-1.9 -0.7,-3 0.9,-1.1 2.1,0.1 3,0.5 2.6,1.2 5.1,2.6 7.7,3.8 21.8,11.3 42.4,24.9 61.4,40.5 1,1.3 1,1.3 -0.2,1.6 z"
   id="path22" />
		<path
   class="st5"
   d="m 493.1,102.1 c 0.5,1.1 1.9,0.3 2.6,1.5 -4.2,3.6 -8.4,7.3 -12.6,10.9 -7.7,6.5 -15.4,13 -23.1,19.5 -10.9,9.2 -21.8,18.5 -32.8,27.7 -7.6,6.4 -15,13 -22.6,19.5 -9.2,7.8 -18.5,15.5 -27.6,23.3 -7.3,6.2 -14.5,12.5 -21.8,18.7 -7.7,6.5 -15.4,13 -23.1,19.5 l -7.7,6.5 2.2,-9.8 c -1.2,-3.2 1.4,-4.6 3.1,-6.1 7,-5.8 13.9,-11.8 20.8,-17.7 16.2,-13.7 32.3,-27.5 48.5,-41.2 13.9,-11.8 27.8,-23.6 41.7,-35.4 12.9,-11 25.9,-21.9 38.7,-33.1 1,-0.9 2.9,-1.9 0.1,-3 4.5,-1.6 9.1,-0.4 13.6,-0.8 z"
   id="path24" />
		<path
   class="st6"
   d="m 479.6,102.9 c 1,0.2 2.2,-0.4 3.3,0.5 -2.6,3.9 -6.5,6.4 -10,9.4 -9.8,8.6 -19.8,17 -29.7,25.4 -9.1,7.7 -18.3,15.3 -27.4,23 -9.1,7.7 -18.2,15.7 -27.4,23.5 -9.2,7.8 -18.3,15.3 -27.4,23 -9.1,7.7 -18.2,15.6 -27.4,23.5 -2.7,2.4 -6.4,4 -7.1,8.1 -4.8,0.6 -7.4,4.6 -10.9,7.2 -5.6,4 -9.9,9.5 -15,14 -5.2,3.7 -9.8,8.1 -14.6,12.2 -14.4,12.2 -28.7,24.5 -43.1,36.6 -2,1.7 -3.8,3.7 -6,5.1 -1,0.6 -1.9,1.8 -3.3,0.8 -0.1,-2.6 0.4,-5.2 1.5,-7.5 7.2,-4.6 13.2,-10.7 19.7,-16.1 17.9,-15 35.6,-30.2 53.4,-45.3 17.8,-15.1 35.3,-30.1 53,-45.1 17.3,-14.7 34.6,-29.4 51.9,-44.1 17.7,-15 35.4,-30 53,-45.1 3.5,-3 7.2,-5.8 10.5,-9 z"
   id="path26" />
		<path
   class="st7"
   d="m 518.6,103.6 c 4.1,-0.1 8,1 12,1.5 1.1,2.4 -1,3.3 -2.2,4.4 -5,4.4 -10.2,8.5 -15.1,13 -0.5,-0.7 -1.1,-1.4 -1.6,-2.1 -1.1,-1.6 -1.9,-1.2 -2.6,0.3 -5.9,12.7 -16,21.5 -27.1,29.3 -12.4,8.7 -25.8,16 -39.9,21.8 -0.8,-1.4 -0.8,-1.5 0.5,-2.8 2.7,-2.8 5.8,-5.1 8.7,-7.6 21.3,-18.1 42.6,-36.1 63.8,-54.4 1.2,-1 2.3,-2.2 3.5,-3.4 z"
   id="path28" />
		<path
   class="st8"
   d="m 518.6,103.6 c -0.1,1.2 -0.8,2.4 -1.8,3.1 -13.7,11.6 -27.4,23.3 -41.1,34.9 -10.5,8.9 -20.9,17.9 -31.4,26.9 -0.9,0.8 -2.7,1.4 -2.2,3.3 -6.6,3.1 -13.4,5.9 -20.3,8.2 -2.3,-0.6 -0.4,-1.5 0,-1.9 4.1,-3.6 8.2,-7.2 12.4,-10.7 7.6,-6.5 15.3,-13 23,-19.5 7.6,-6.4 15.2,-12.8 22.7,-19.2 7.5,-6.4 15.1,-12.9 22.6,-19.4 2.4,-2.1 5.4,-3.7 7,-6.6 3.1,-0.2 6.1,0.8 9.1,0.9 z"
   id="path30" />
		<path
   class="st3"
   d="m 465.4,193.8 c 7.9,-3.9 16.2,-7.2 23.1,-12.9 1.4,-0.1 1.3,0.8 0.9,1.7 -6.4,26.4 -26.4,43.8 -53.5,46.3 -5.2,0.5 -10.4,1.1 -15.7,0.6 0.7,-1.9 2.5,-1.8 4,-2.2 5.9,-1.6 11.7,-3.3 17.2,-6.1 10.2,-5.3 17.7,-13.1 22,-23.8 0.3,-1.4 1,-2.7 2,-3.6 z"
   id="path32" />
		<path
   class="st9"
   d="m 465.4,193.8 c -3.3,12.6 -11.3,21.3 -22.4,27.6 -7.1,4 -15,5.9 -22.8,8.1 -1.9,-5.6 0.2,-10.3 3.5,-14.6 3.9,-5 9.3,-8.1 15,-10.7 8.7,-4 17.6,-7.4 26.7,-10.4 z"
   id="path34" />
		<path
   class="st5"
   d="m 233.6,315.1 c 4.4,-1.6 7.3,-5.4 10.8,-8.3 11.3,-9.3 22.4,-18.8 33.5,-28.2 5.9,-5 11.6,-10 17.4,-15.1 1.6,-1.4 3,-2.9 5.3,-3.1 -6,7.5 -11.7,15.2 -16,23.9 -11.5,9.7 -23,19.5 -34.4,29.3 -5.3,4.5 -10.7,8.9 -15.9,13.6 -0.8,0.7 -1.7,1.6 -2.9,0.6 0.2,-4.2 0.9,-8.5 2.2,-12.7 z"
   id="path36" />
		<path
   class="st10"
   d="m 277.6,335.3 c -3.5,0.3 -5.1,3.4 -7.5,5.3 -9.9,8 -19.4,16.2 -29,24.5 -3.2,2.8 -6.3,5.6 -9.7,8.2 -2.2,1.7 -3.1,1 -3,-1.6 0,-3.1 0,-6.2 0,-9.4 3.5,-3.8 7.6,-6.7 11.5,-10 11.2,-9.5 22.2,-19.1 33.6,-28.4 1,-0.8 1.8,-2.3 3.5,-1.3 z"
   id="path38" />
		<path
   class="st8"
   d="m 325.8,261.2 c 0.1,-1.3 0.8,-2.4 1.9,-3.1 9,-7.6 18,-15.2 27,-22.8 7.4,-6.2 14.7,-12.6 22.1,-18.9 3.9,-3.3 7.7,-6.7 11.5,-10 0.7,-0.6 1.4,-1.1 2.1,0 -0.8,3.4 -1.8,6.8 -1.7,10.4 -4,4.4 -8.9,7.9 -13.4,11.8 -14,12 -28,23.9 -42,35.8 -0.6,0.5 -1,1.1 -1.5,1.7 -2.7,-0.5 -5,-2.3 -6,-4.9 z"
   id="path40" />
		<path
   class="st4"
   d="m 231.3,327.9 c 3.2,-1 5.1,-3.8 7.6,-5.8 13.2,-10.9 26.1,-22 39.2,-33.1 2.1,-1.7 3.5,-4.3 6.6,-4.6 -2.4,5.9 -4.4,11.9 -6,18 -2.3,-0.2 -3.5,1.6 -5,2.9 -13.6,11.7 -27.3,23.2 -40.9,34.8 -0.8,0.7 -1.6,1.7 -2.9,1.3 -0.2,-4.6 0.3,-9.1 1.4,-13.5 z"
   id="path42" />
		<path
   class="st7"
   d="m 331.8,266.1 c -0.9,-1.7 0.6,-2.2 1.5,-2.9 11.5,-9.8 23,-19.6 34.5,-29.3 6.5,-5.5 13,-11 19.6,-16.5 0.4,-0.2 0.9,-0.4 1.4,-0.5 0,3.1 0.5,6.1 1.4,9 -3.9,4.6 -8.9,8 -13.4,11.9 -10.1,8.7 -20.2,17.3 -30.5,25.9 -0.7,0.5 -1.3,1.2 -1.5,2 -4.3,1.6 -8.6,2.2 -13,0.4 z"
   id="path44" />
		<path
   class="st7"
   d="m 276.8,322.7 c -4.2,2.4 -7.6,5.9 -11.3,9 -9.8,8 -19.4,16.2 -28.9,24.5 -2.6,2.3 -5,4.8 -8.3,6.3 0.4,-4 -0.8,-8.1 0.7,-12 14.8,-12.6 29.6,-25.2 44.5,-37.8 1,-0.9 2.1,-1.9 3.6,-1.2 z"
   id="path46" />
		<path
   class="st8"
   d="m 277.2,311.4 c -4.8,2.5 -8.4,6.5 -12.5,9.9 -9.7,8 -19.1,16.2 -28.7,24.2 -2.1,1.8 -3.6,4.6 -6.8,4.9 0.4,-3 -0.8,-6.1 0.8,-9 9.3,-8 18.7,-16 28.1,-23.9 6.3,-5.4 12.7,-10.7 19.1,-16.1 2,-1.7 1.5,0.2 1.6,1.1 -0.7,2.9 -1.1,5.9 -1.6,8.9 z"
   id="path48" />
		<path
   class="st11"
   d="m 344.8,265.8 c -1.4,-1 -0.4,-1.7 0.3,-2.4 8.8,-7.4 17.7,-14.8 26.5,-22.2 5.5,-4.6 10.9,-9.3 16.4,-14 0.6,-0.7 1.3,-1.1 2.2,-1.3 l 2.2,4.5 c -1.7,2.7 -4.5,4.3 -6.5,6.8 -10.8,12 -23,22.1 -38.3,27.9 -0.9,0.3 -1.8,0.5 -2.8,0.7 z"
   id="path50" />
		<path
   class="st10"
   d="m 513.3,122.6 c 1.4,-4.2 5.8,-5.5 8.4,-8.5 2.8,-3.2 7.3,-4.6 9,-9 3.3,0 6.4,0.9 9.5,1.4 2.7,0.5 2.9,1.7 1,3.4 -4.1,3.6 -8.2,7.3 -12.3,10.8 -3.9,3.3 -7.8,6.6 -11.7,9.9 -1.4,-2.7 -2.7,-5.4 -3.9,-8 z"
   id="path52" />
		<path
   class="st12"
   d="m 328.1,293.6 c 0.7,1.7 -1.3,2.5 -1.1,4 -1,-4.6 -3.5,-6.3 -8.1,-5.4 -4.9,1.1 -9.3,3.6 -12.6,7.4 -0.9,1 -2,1.9 -3,2.8 -0.8,-1 0,-1.9 0.3,-2.8 2,-6.5 6.4,-11.1 11.9,-14.8 1.2,-0.9 2.6,-1.5 4.1,-1.9 6.4,-1.5 9.9,1.6 9,8.1 0.1,0.9 -0.1,1.8 -0.5,2.6 z"
   id="path54" />
		<path
   class="st13"
   d="m 328.1,293.6 c 0,-1 0.1,-2 0.1,-3 0.1,-6.5 -3.6,-9 -9.7,-6.2 -7,3.2 -11.4,8.9 -14.5,15.8 -0.7,0.1 -1.1,-0.1 -0.9,-0.9 2.2,-8.2 6.5,-14.9 13.6,-19.7 1.8,-1.2 3.8,-1.9 5.8,-2.3 3.3,-0.7 6.6,1.3 7.4,4.6 1.1,3.9 0.5,8.2 -1.8,11.7 z"
   id="path56" />
		<path
   class="st14"
   d="m 385.9,237.2 c -1.3,-1 -0.1,-1.4 0.5,-1.9 2.1,-1.5 3.3,-4.1 5.9,-4.9 3.4,5.4 8.8,7.8 14.5,9.8 1.1,0.4 2.3,0.7 4.2,1.2 -8.7,2.3 -16.2,1.4 -23.1,-3.3 -0.5,-0.6 -1.2,-0.9 -2,-0.9 z"
   id="path58" />
		<path
   class="st15"
   d="m 695,252 c -2.8,-0.3 -4.8,-2.2 -7.3,-3.1 -1,-0.4 -1.9,-1.6 -2.9,-0.8 -0.8,0.7 0.5,1.7 0.2,2.7 -1.5,-1.3 -2.1,-3.3 -2.9,-5.2 4.5,1.8 8.9,3.6 12.9,6.4 z"
   id="path60" />
		<path
   class="st16"
   d="m 756.3,294.2 c 0.8,-0.5 0,-1.1 0.1,-1.7 l 4.3,2.4 2.3,3 c -2.8,-0.8 -4.7,-2.4 -6.7,-3.7 z"
   id="path62" />
		<path
   class="st17"
   d="m 584,235 c 2,-0.3 4.1,-0.1 6,0.4 -2.4,1.4 -4,1.2 -6,-0.4 z"
   id="path64" />
		<path
   class="st18"
   d="m 296.6,582.1 c 2.3,0.4 3.4,2.7 5.3,3.7 l -0.1,0.9 c -2.1,-1 -3.9,-2.6 -5.2,-4.6 z"
   id="path66" />
		<path
   class="st19"
   d="m 772.9,438.8 1.3,0.8 c 0.2,1.5 -0.5,2.8 -1.3,4.6 z"
   id="path68" />
		<path
   class="st20"
   d="m 583.8,121.6 c 0.5,1.1 1.7,0.7 2.5,1 l -4,1.6 c -0.3,-1.7 0.7,-2.1 1.5,-2.6 z"
   id="path70" />
		<path
   class="st21"
   d="m 303.2,299.3 0.9,0.9 c -0.2,0.7 -0.5,1.5 -0.7,2.2 l -1.6,2.1 c 0.4,-2.5 0.5,-4 1.4,-5.2 z"
   id="path72" />
		<path
   class="st22"
   d="m 489.4,182.5 c -0.2,-0.6 -0.1,-1.4 -0.9,-1.7 0.2,-0.6 0.9,-1.4 1.2,-1.1 0.9,0.9 0.5,1.9 -0.3,2.8 z"
   id="path74" />
		<path
   class="st23"
   d="m 236.6,301.6 c 1,-5.4 2.1,-10.8 4.5,-15.8 8.8,-6.2 16.6,-13.6 24.8,-20.5 14.2,-12 28.4,-24 42.5,-36.1 12.9,-11 25.8,-22 38.8,-33 14,-11.9 28,-23.8 42,-35.7 12.7,-10.8 25.5,-21.6 38.2,-32.5 8.9,-7.6 18,-15.1 26.7,-22.9 4.7,-1.1 9.4,-1.7 14.2,-1.5 0.4,-0.4 1,-0.4 1.5,-0.2 1.1,1.8 -0.3,2.8 -1.4,3.8 -12.1,10.2 -24.1,20.5 -36.2,30.8 -12.9,10.9 -25.7,21.8 -38.6,32.8 -11.9,10.1 -23.7,20.2 -35.6,30.3 -14.4,12.3 -28.9,24.5 -43.4,36.8 -18,15.2 -35.9,30.6 -53.9,45.8 -7,5.9 -13.8,11.9 -20.9,17.6 -0.6,0.7 -1.8,3 -3.2,0.3 z"
   id="path76" />
		<path
   class="st24"
   d="m 454.1,105.1 c -1.3,4.2 -5.3,5.8 -8.2,8.4 -9.5,8.4 -19.3,16.5 -28.9,24.7 -10.8,9.1 -21.7,18.2 -32.5,27.4 -9.4,8 -18.6,16.1 -28,24.1 -9.1,7.7 -18.3,15.3 -27.4,23.1 -9.1,7.8 -18.1,15.6 -27.2,23.3 -9.1,7.7 -18.2,15.4 -27.4,23.1 -7.5,6.4 -14.9,12.8 -22.4,19.2 -3,2.6 -6.1,5.1 -9.2,7.6 -0.7,0.5 -1.3,0.8 -1.9,0 1.1,-5.2 2.8,-10.3 5.2,-15 6.9,-4.4 12.7,-10.1 18.9,-15.3 14.2,-12 28.4,-24 42.5,-36.1 14.6,-12.5 29.3,-25 43.9,-37.4 12.1,-10.3 24.2,-20.5 36.2,-30.8 15.7,-13.3 31.3,-26.8 47.1,-40 1.2,-0.8 2.1,-1.9 2.6,-3.1 5.5,-2.2 11.2,-2.1 16.7,-3.2 z"
   id="path78" />
		<path
   class="st25"
   d="m 437.6,108.1 c 2.3,0.6 0.4,1.5 0,1.9 -4.2,3.8 -8.5,7.6 -12.9,11.3 -7.6,6.4 -15.2,12.8 -22.8,19.2 -11.1,9.3 -22.2,18.7 -33.3,28.1 -9.1,7.7 -18.1,15.6 -27.2,23.3 -9.4,8 -18.8,15.9 -28.2,23.8 -9.1,7.7 -18.1,15.5 -27.2,23.3 -9.1,7.7 -18.2,15.4 -27.3,23.1 -3.3,2.8 -6.6,5.6 -10,8.4 -0.7,0.5 -1.4,1.8 -2.4,0.4 1,-5.1 3.7,-9.6 6,-14.2 12.3,-10.5 24.7,-21 37.1,-31.6 12.7,-10.9 25.5,-21.7 38.2,-32.5 12.2,-10.4 24.3,-20.7 36.5,-31 12.8,-10.9 25.7,-21.9 38.5,-32.8 6.6,-5.6 13.1,-11.5 20,-17 4.7,-2.2 9.9,-2.8 15,-3.7 z"
   id="path80" />
		<path
   class="st26"
   d="m 422.6,111.8 c -4.8,6.2 -11.2,10.5 -17,15.6 -7.6,6.6 -15.3,13.1 -23,19.6 -7.5,6.3 -15,12.6 -22.5,19 -7.5,6.4 -14.9,12.8 -22.4,19.1 -7.5,6.4 -15.2,12.8 -22.8,19.2 -7.4,6.3 -14.7,12.6 -22.1,18.9 -9.4,8 -18.8,15.9 -28.2,23.8 -3.3,2.8 -6.7,5.6 -10,8.4 -0.6,0.6 -1.4,1 -2.3,1.1 2.4,-6.3 5.4,-12.3 9,-18 17.1,-13.9 33.8,-28.4 50.6,-42.7 19.5,-16.6 39,-33 58.4,-49.7 10.9,-9.4 22.3,-18.4 32.9,-28.3 6.2,-2.5 12.7,-4.5 19.4,-6 z"
   id="path82" />
		<path
   class="st27"
   d="m 403.1,117.9 c 0.8,1.3 -0.6,1.7 -1.2,2.3 -8.3,7.3 -16.7,14.5 -25.1,21.7 -7.4,6.3 -14.8,12.5 -22.2,18.8 -9.2,7.8 -18.4,15.6 -27.6,23.3 -7.5,6.4 -14.9,12.8 -22.4,19.1 -9.4,8 -18.8,15.9 -28.1,23.8 -3.9,3.3 -7.8,6.7 -11.6,10 -1,1 -2.3,1.6 -3.6,1.8 4.6,-9.3 10.2,-18.1 16.5,-26.2 5.8,-4.3 11.1,-9.2 16.6,-13.8 14.3,-12.1 28.5,-24.2 42.7,-36.3 11,-9.4 22,-18.8 33,-28.1 1.7,-1.4 3.8,-2.4 5.1,-4.3 8.8,-5.5 18.4,-8.7 27.9,-12.1 z"
   id="path84" />
		<path
   class="st28"
   d="m 561.3,452.4 c -7.5,6.2 -15,12.5 -25,16.8 2.9,-5.8 5.1,-11.9 6.6,-18.2 5.9,-26 0.4,-49.7 -14.9,-71.2 -3.8,-5.3 -8.9,-9.4 -13.4,-14.1 -0.7,-0.8 -1.5,-1.7 -2.8,-1.1 -1.4,-0.7 -2,-2 -3,-3 0.6,-0.8 1.3,-0.4 2,0 18.1,10.3 33.2,23.6 42.5,42.7 4.5,9.4 7.3,19.6 8.2,30 0.6,6 0.5,12.1 -0.2,18.1 z"
   id="path86" />
		<path
   class="st29"
   d="m 236.6,301.6 c 3,1.1 4,-1.9 5.5,-3.1 15.2,-12.6 30.2,-25.4 45.2,-38.3 14.2,-12.1 28.2,-24.3 42.4,-36.4 15.8,-13.4 31.7,-26.7 47.6,-40.1 14.2,-12.1 28.3,-24.3 42.5,-36.4 15.3,-13 30.6,-26.1 46,-39.2 1.6,-1.3 3.8,-2 4.1,-4.5 0.9,-0.8 2.1,0.1 3,-0.7 h 3.8 c -1.1,4 -5,5.4 -7.7,7.8 -7.8,7 -15.9,13.6 -23.8,20.3 -9.1,7.7 -18.3,15.4 -27.4,23.1 -7.4,6.3 -14.7,12.6 -22.1,18.9 -10.9,9.2 -21.9,18.4 -32.7,27.7 -7.4,6.3 -14.7,12.6 -22.1,18.9 -9.4,8 -18.8,15.9 -28.2,23.8 -7.4,6.3 -14.7,12.6 -22.1,18.9 -7.6,6.4 -15.2,12.8 -22.8,19.2 -7.6,6.4 -15.1,13 -22.7,19.4 -2.6,2.2 -5.4,4.4 -8.1,6.6 -0.6,0.5 -1.2,0.9 -1.9,0 0,-1.9 0.5,-4 1.5,-5.9 z"
   id="path88" />
		<path
   class="st30"
   d="m 375.3,129.8 c -0.6,3.6 -4.1,4.5 -6.3,6.5 -7.7,6.9 -15.6,13.4 -23.5,20.1 -9.2,7.8 -18.4,15.5 -27.6,23.3 -7.4,6.3 -14.7,12.6 -22.1,18.9 -5.4,4.6 -10.7,9.2 -16.1,13.8 -0.6,0.5 -1.2,0.9 -1.9,0 3.9,-6 8.3,-11.7 13.1,-17.1 17.6,-20.5 37.7,-38.3 60.7,-52.6 7.7,-4.7 15.3,-9.6 23.7,-12.9 z"
   id="path90" />
		<path
   class="st8"
   d="m 505.1,102.9 c -2.5,-0.3 -5.1,0.8 -7.5,-0.7 2.5,0.3 5.1,-0.8 7.5,0.7 z"
   id="path92" />
		<path
   class="st6"
   d="m 472.8,102.9 c -0.8,1.1 -2,0.6 -3,0.7 h -1.5 c 1.4,-1.3 3,-0.5 4.5,-0.7 z"
   id="path94" />
		<path
   class="st28"
   d="m 400.8,624.9 c 24.5,1.1 48.9,-2.8 71.8,-11.3 22.3,-8.1 43.1,-19.8 61.6,-34.7 18.1,-14.7 33.7,-31.5 44.1,-52.6 5.6,-11.3 9.1,-23.5 10.2,-36 1,-11.3 -0.9,-22 -4,-32.6 0.3,-2.6 2.7,-3.8 4.1,-5.6 5.4,-7.1 9.3,-14.7 11,-23.5 0.3,-1.2 0.7,-2.3 1.2,-3.4 3.4,6.8 6.1,13.9 8,21.2 2.6,10.3 4.1,20.8 3.3,31.4 -1.4,18.4 -6.9,36.3 -16.1,52.3 -9.2,16.2 -21,30 -34.6,42.4 -12,10.7 -25.2,20 -39.4,27.5 -17.1,9.3 -35.3,16.2 -54.3,20.7 -11.8,2.8 -23.9,4.5 -36,5.2 -5.9,0.3 -11.7,0.8 -17.5,0.5 -4.3,-0.4 -8.9,-0.1 -13.4,-1.5 z"
   id="path96" />
	</g>
</g>
</svg>
