<?xml version="1.0" encoding="utf-8"?>
<!-- Generator: Adobe Illustrator 26.0.3, SVG Export Plug-In . SVG Version: 6.00 Build 0)  -->
<svg version="1.0" id="Layer_1" xmlns="http://www.w3.org/2000/svg" xmlns:xlink="http://www.w3.org/1999/xlink" x="0px" y="0px"
	 viewBox="0 0 987.5 721.5" style="enable-background:new 0 0 987.5 721.5;" xml:space="preserve">
<style type="text/css">
	.st0{fill:#FFFFFF;}
	.st1{fill:#4189C9;}
	.st2{fill:#262F71;}
	.st3{fill:#161F42;}
	.st4{fill:#5C94CE;}
	.st5{fill:#6497D0;}
	.st6{fill:#689AD1;}
	.st7{fill:#4E8FCC;}
	.st8{fill:#5591CD;}
	.st9{fill:#418AC9;}
	.st10{fill:#468CCA;}
	.st11{fill:#488DCA;}
	.st12{fill:#428AC9;}
	.st13{fill:#182144;}
	.st14{fill:#458CCA;}
	.st15{fill:#63657D;}
	.st16{fill:#263154;}
	.st17{fill:#A09AA9;}
	.st18{fill:#424A7F;}
	.st19{fill:#8CB7DE;}
	.st20{fill:#5A5D76;}
	.st21{fill:#4F668A;}
	.st22{fill:#555A73;}
	.st23{fill:#6D9CD2;}
	.st24{fill:#729FD4;}
	.st25{fill:#78A2D5;}
	.st26{fill:#7DA5D6;}
	.st27{fill:#81A7D8;}
	.st28{fill:#0E1F66;}
	.st29{fill:#699AD1;}
	.st30{fill:#88ABD9;}
</style>
<g>
	<path class="st0" d="M473.5,10.1c173-10,327.4,107.6,363.7,277c9.9,46.5,10.3,94.6,1.2,141.3c-22.7,115.2-101.3,211.4-209.6,256.7
		c-73.8,31-158.2,35.3-234.9,12.5c-105.1-31.3-189.7-109.8-228.7-212.3c-28-73.5-30.2-156.4-6.2-231.3
		C203.2,115.4,328.3,18.4,473.5,10.1"/>
	<g>
		<path class="st1" d="M277.6,335.3c1.4,6.4,2.2,12.9,3.6,19.4c0.9,3.9,2.1,3,4.1,1.3c3.9-3.2,7.6-6.7,11.9-9.3
			c1.2,0.2,1.9,1.2,2.5,2.1c11.4,14.9,26.5,24,44.4,28.9c8.2,2.3,16.7,3.8,25.2,4.7c-2.7-3-4.9-6.3-6.6-10c-2.9-6.4-1.9-12.1,3-17.2
			c5.9-6.2,13.6-8.8,21.5-10.8c16.5-4.3,33.3-4.7,50.2-3.5c13.6,0.9,27,3.2,40.2,6.9c11,3.1,21.7,6.7,31.4,12.9
			c1.4,1.1,2.3,2.6,3.6,3.7c12.5,13.4,19.8,29.2,20.3,47.5c0.3,12.6-3.2,24.7-9.5,35.8c-11.4,20-28.1,34.6-48,45.7
			c-20.2,11.3-42.5,18.3-65.6,20.7c-41.2,4.5-79.5-4.5-114.6-26.4c-29.2-18.2-51.7-43.1-70-71.9c-8.5-13.7-16-28-22.5-42.8
			c-0.8-1.8-1-3.8-1.8-5.3c0.5,1.8,1.5,3.7-0.4,5.6c-0.6-7.5,0.1-14.9,0.5-22.3c1-20.5,4.2-40.8,9.5-60.5
			c24.1-89.1,88.7-161.6,174.5-195.8c25.8-10.3,52.9-16.7,80.5-19.2c43.6-4,85.8,1.7,127,16.3c-6.3,11.9-42,43.7-69.8,62.2
			c-0.8-8-2.6-15.9-5.4-23.5c-0.1-2,1.7-2.6,2.8-3.6c5.8-5,11.6-9.9,17.4-14.8c0.6-0.5,1.2-1,1.7-1.5c0.7-0.7,1.8-1.3,1.5-2.4
			c-0.2-1.1-1.5-1.1-2.5-1.3c-2.7-0.6-5.4-0.9-8.2-1c-3.8-0.4-7.6-1.3-11.4-1.4c-3-0.2-5.9-0.9-8.8-0.7c-1.5,0-3-0.1-4.5-0.3
			c-2.5-0.8-5.1-0.4-7.6-0.4c-1.5,0-3-0.1-4.6,0c-4.4,0.2-8.7-0.5-13.1,0.3c-1.1,0.2-2.1,0.3-3.2,0.3c-1.3,0-2.5,0.1-3.8,0
			c-1.6-0.2-3.3,0-4.9,0.5c-4.6,0.4-9.2,0.8-13.7,1.6c-5.5,1.2-11.1,1.4-16.5,2.8c-5,1.3-10.1,2-15,3.7c-6.5,1.8-13,3.8-19.4,6
			c-9.3,3.7-18.8,7.1-27.7,11.9c-20.1,9.8-38.9,22.2-55.7,36.9c-15.6,13.5-29.6,28.7-41.7,45.4c-6,8.4-11.6,17.1-16.5,26.2
			c-3.2,5.9-6.2,11.9-9,18c-2,4.7-4.4,9.3-6,14.2c-2,4.9-3.6,9.9-5.2,15c-1.9,5.1-3,10.4-4.4,15.5c-0.6,2-1,4.1-1.5,6.2
			c-0.6,2.5-1,5-1.5,7.5c-0.8,4.2-1.5,8.5-2.1,12.8c-0.8,4.4-1.3,8.8-1.6,13.3c-0.7,2.9-0.2,6-0.7,9c-0.8,3.7-0.3,7.5-0.5,11.2
			c-0.1,2.6-0.2,5.2-0.1,7.8c0,1.1-0.5,2.6,0.6,3.1c1.3,0.6,2.2-0.8,3.2-1.5c3.2-2.6,6.3-5.3,9.4-8c10.5-9,21.1-17.9,31.6-26.9
			C275,335.3,276,333.3,277.6,335.3z"/>
		<path class="st2" d="M508.9,361.5c-12.4-7.4-25.9-11.6-39.8-14.9c-18.2-4.3-37-6.1-55.7-5.1c-13.2,0.7-26.3,2.5-38.5,8.3
			c-1.5,0.7-2.9,1.5-4.2,2.4c-9.9,6.6-11.4,15.4-4.2,24.9c1.5,2,3.1,3.8,5.1,6.2c-6.4,0-12.1-1.2-17.7-2.3c-15.1-3-29.3-8.2-41.5-18
			c-5.9-4.7-11.2-9.9-15.1-16.5c1.6-2.6,4.3-3.8,6.8-5.3c4.8-2,9.2-4.9,14-7.1c21.3-9.8,44.1-15.8,67.4-18c9.3-0.9,18.6-1.8,28-1.4
			c27.6,1.1,55,5.9,81.3,14.2c6.8,2.1,13.5,4.5,20.6,6.8c0-2-1.1-3.2-1.9-4.5c-2.8-4.8-6.1-9.4-9.7-13.7c-1.3-1.6-3.2-2.9-3.1-5.3
			c3.7,0.9,7.5,1.7,11.2,2.6c1,0.2,2.2,0.8,2.8,0c0.9-1.1-0.4-2-1-2.8c-5.5-8.2-12.3-15.2-19.7-21.7c3.9-2.3,7.9-0.4,11.7,0.1
			c38.9,5,74.3,18.8,105.2,43c40.9,32.1,67.3,73.5,78.5,124.5c3.6,17,4.7,34.5,3.4,51.8c-2.2,30.1-11.7,57.9-29.5,82.6
			c-1.2,1.6-2.8,2.9-3.6,4.8c-4,6-10,10.1-15.4,14.5c-29.5,24-64,36.5-101.1,42.3c-28.9,4.6-58.3,5.1-87.3,1.5
			c-45.7-5.6-89.4-22.1-127.4-48.1c-9.3-6.3-18.4-12.8-26.5-20.6c-0.3-0.2-0.3-0.6-0.1-0.9c0,0,0.1-0.1,0.1-0.1
			c1.7-0.7,2.8,0.6,4,1.4c19.4,14.6,41.5,25.3,65,31.6c7.9,2,15.8,3.6,23.9,4.8c1.8,0.7,3.8,0.3,5.6,0.7c0.4,0,0.8,0.1,1.1,0.2
			c18.2,2.2,36.4,0.9,54.4-2.3c39.5-7,74.7-23.5,104.7-50.2c20.5-18.1,36.7-39.5,45.3-65.9c8.6-26.4,7.4-52.1-4.7-77.5
			c-2.5,11.4-8.4,20.8-15.9,29.4c-7.5,8.4-16.3,15.6-26.1,21.2c-1.1,0.7-2.4,1.9-3.7,0.9c-1.1-0.9-0.5-2.4-0.1-3.5
			c2.4-7.9,4-16,4.9-24.2c3.5-34.5-9.8-61.4-37.3-81.7C518.5,367.2,513.8,364.2,508.9,361.5z"/>
		<path class="st3" d="M394.9,624.2c-10.1-1-20.1-3.1-29.9-6.1c-18.4-5.6-35.8-13.7-51.9-24.3c-3.8-2.5-7.1-5.9-11.2-7.9
			c-2.4-0.3-3.4-2.7-5.3-3.7c-40.4-35.9-68-80-83.8-131.5c-7.7-25-11.9-51-12.3-77.2c0.1-2,0.2-3.9,0.4-7c2,4.4,3.5,7.8,5.1,11.3
			c14.5,31.9,33.1,60.9,58.7,85.1c27.2,25.7,58.9,42.9,96.2,48.9c43.7,7.1,84.6-0.5,122.2-24.1c18.8-11.8,34.1-26.9,43-47.6
			c10.7-25.1,6.7-48.4-9.7-69.9c-1.4-1.9-3-3.7-4.4-5.5c1.9-1.7,3,0.3,4.1,1.2c9.7,8.1,17.4,18.3,22.6,29.9c5,11.1,7.7,23,7.8,35.2
			c0.2,12.4-2.6,24.7-8,35.9c1.2,0,2.3-0.4,3.2-1.2c5.2-3,10.1-6.5,14.7-10.4c1.4-1.2,2.7-3.1,5-2.8c-1.2,9.4-3.3,18.7-6.1,27.8
			c6-3.4,11.8-7.2,17.3-11.5c4.3-3.4,7.8-7.6,12.1-11.1c1.8,0.8,1.8,2.6,2.2,4.1c6.9,25,1.9,48.3-10.4,70.3
			c-15,26.7-37,46.6-62.6,62.7c-20.7,13-43.4,22.3-67.3,27.5c-15,3.4-30.4,4.3-45.7,2.7l0,0C398.9,623.9,396.8,625.1,394.9,624.2z"
			/>
		<path class="st1" d="M772.9,438.8c-1.3-28.6-8.4-56.6-20.8-82.4c-8.1-16.8-18.3-32.5-30.4-46.7c-10.9-12.9-23.4-23.9-36.6-34.4
			c1.2-1.2,2.8-1,4.2-0.8c18.4,2.1,36.4,6.4,53.8,12.8c4.3,1.6,8.5,3.5,12.5,5.8c1.4,0.7,2.8,1.5,4.2,2.4c0.3,0.2,0.5,0.7,1,0.6
			c-0.3-0.4-0.4-0.9-0.2-1.4c-11.8-15.4-26.2-28.3-41.2-40.5c-17.9-14.5-37.4-26.9-58.2-36.9c-28.8-14.2-59.7-23.5-91.6-27.4
			c-2.8-0.4-5.8,0-8.5-1c-0.2-1.9,1.4-2.5,2.5-3.4c18.7-15.6,33.7-34,44.3-55.9c3.2-6.6,5.9-13.5,8.1-20.5c0.6-2,1-4.2,3-5.4
			c33.5,16.1,63.5,38.5,88.5,66c66.4,73,91.4,174.5,66.6,270C773.4,440,773.3,439.3,772.9,438.8z"/>
		<path class="st3" d="M659.6,597.1c0-2.9,2.3-4.6,3.8-6.7c13.7-19.5,22-41.1,26.3-64.5c2.7-14.5,2.9-29.1,2-43.6
			c-1.5-22.3-7.2-43.8-16.2-64.4c-6.6-15.1-14.9-29.4-24.7-42.6c-10.5-13.9-22.7-26.6-36.2-37.6c-20.8-17.2-44.8-30.1-70.6-38.1
			c-13.7-4.4-27.9-7.3-42.2-8.7c-2.6-0.2-5.1-0.9-7.8-0.7c-9.1-6.7-18.4-13.2-28.8-17.9l0.1-1c3.7,0,7.5,0.1,11.2,0
			c52.4-0.9,100.8,11.9,143,43.8c43.7,33.1,71.1,76.8,81.3,130.8c8.7,46,2,89.5-23.6,129.4C672.2,583.4,666.7,590.9,659.6,597.1z"/>
		<path class="st3" d="M619.2,103.7c-5.2,16.1-11.8,31.5-21.3,45.6c-9.5,14.2-21.1,26.9-34.4,37.7c-0.8,0.6-1.5,1.3-2.2,2
			c-4.6,2.3-8.4,5.9-12.6,8.7c-15.5,10.2-32.1,18.8-49.4,25.5c-0.4,0.1-0.9,0.2-1.3,0.3c-0.8-1.1,0.1-1.5,0.6-2
			c9.8-9.4,15.9-20.9,20-33.7c0.4-1.7,1.6-3.1,3.2-3.6c30.5-12.1,54.9-32.1,74.8-57.9c1.8-2.3,3.6-4.7,5.8-7.7
			c-6.2-0.1-10.9,3-16.1,3.8c-1,0.1-2.3,0.9-2.5-1c18.9-22.1,33.2-47.9,41.8-75.6c0.5-1.8,0-4.2,2.5-5.1c0.2,0.1,0.3,0.3,0.2,0.5
			c0,0.2-0.1,0.3-0.1,0.3c-0.3,19.8-3.1,39.5-8.3,58.6C619.6,101.2,619.4,102.4,619.2,103.7z"/>
		<path class="st3" d="M500.6,312.3c6.2,6.8,11.6,14.4,16.1,22.5c0.4,0.8,1.5,1.7,0.5,2.6c-0.8,0.7-1.6-0.2-2.4-0.5
			c-20.3-7.6-41.2-13.3-62.6-17c-10.8-1.9-21.7-2.7-32.6-3.5c-9.8-0.6-19.7-0.5-29.5,0.4c-22.4,1.8-44.2,6.6-65,15.6
			c-6.4,2.8-12.9,5.3-18.9,9c-0.7,0.4-1.5,1.1-2.3,0.1c18-12.7,38-22.3,59.2-28.4c29.2-8.7,58.9-10.8,89.2-8.5
			c15.4,1.2,30.7,3.6,45.7,7C499,311.7,499.8,312,500.6,312.3z"/>
		<path class="st4" d="M493.1,102.1h4.5c2.4,1,5.1-0.3,7.5,0.7h4.5c0.4,2.2-1.4,3.1-2.6,4.1c-20.8,17.6-41.4,35.3-62.2,52.8
			c-6.9,5.8-13.7,11.6-20.5,17.4c-1.1,0.7-1.9,1.7-2.4,2.8c-9,3.4-17.4,7.6-24,14.9c-3.1,3.5-5.2,7.5-7.4,11.5
			c-6.2,4-11.4,9.3-17,14c-14.8,12.4-29.4,25.1-44.2,37.4c-1.2,1-2.1,2.5-3.5,3.3c-2.5-3.8-2-8-1.4-12.1c1.9-3.1,4.8-5,7.4-7.3
			c14.4-12.2,28.7-24.4,43-36.6c14-11.9,27.9-23.8,41.9-35.6c16.1-13.6,32.1-27.3,48.2-41c8.9-7.6,17.8-15.3,26.9-22.7
			C493.2,104.8,494.1,103.9,493.1,102.1z"/>
		<path class="st3" d="M756.3,294.2c-17.6-8.5-36.3-13.8-55.5-16.9c-5.2-0.8-10.3-1.9-15.5-1.9c-6.7-4.2-13.3-8.7-20.2-12.7
			c-22.3-12.9-46.7-21.7-72.2-25.8c-0.6-0.2-1.1-0.4-1.6-0.6c7.6-1.4,33.7,2.5,51.7,7.5c16.8,4.6,33,10.9,48.5,19
			c-1.6-4.9-4.6-8.1-6.4-12c-0.2-1-1.6-1.9-0.7-3s2.1,0.1,3,0.5c2.6,1.2,5.1,2.6,7.7,3.8c21.8,11.3,42.4,24.9,61.4,40.5
			C757.5,293.9,757.5,293.9,756.3,294.2z"/>
		<path class="st5" d="M493.1,102.1c0.5,1.1,1.9,0.3,2.6,1.5c-4.2,3.6-8.4,7.3-12.6,10.9c-7.7,6.5-15.4,13-23.1,19.5
			c-10.9,9.2-21.8,18.5-32.8,27.7c-7.6,6.4-15,13-22.6,19.5c-9.2,7.8-18.5,15.5-27.6,23.3c-7.3,6.2-14.5,12.5-21.8,18.7
			c-7.7,6.5-15.4,13-23.1,19.5l-7.7,6.5l2.2-9.8c-1.2-3.2,1.4-4.6,3.1-6.1c7-5.8,13.9-11.8,20.8-17.7c16.2-13.7,32.3-27.5,48.5-41.2
			c13.9-11.8,27.8-23.6,41.7-35.4c12.9-11,25.9-21.9,38.7-33.1c1-0.9,2.9-1.9,0.1-3C484,101.3,488.6,102.5,493.1,102.1z"/>
		<path class="st6" d="M479.6,102.9c1,0.2,2.2-0.4,3.3,0.5c-2.6,3.9-6.5,6.4-10,9.4c-9.8,8.6-19.8,17-29.7,25.4
			c-9.1,7.7-18.3,15.3-27.4,23s-18.2,15.7-27.4,23.5s-18.3,15.3-27.4,23s-18.2,15.6-27.4,23.5c-2.7,2.4-6.4,4-7.1,8.1
			c-4.8,0.6-7.4,4.6-10.9,7.2c-5.6,4-9.9,9.5-15,14c-5.2,3.7-9.8,8.1-14.6,12.2c-14.4,12.2-28.7,24.5-43.1,36.6
			c-2,1.7-3.8,3.7-6,5.1c-1,0.6-1.9,1.8-3.3,0.8c-0.1-2.6,0.4-5.2,1.5-7.5c7.2-4.6,13.2-10.7,19.7-16.1c17.9-15,35.6-30.2,53.4-45.3
			c17.8-15.1,35.3-30.1,53-45.1c17.3-14.7,34.6-29.4,51.9-44.1c17.7-15,35.4-30,53-45.1c3.5-3,7.2-5.8,10.5-9L479.6,102.9z"/>
		<path class="st7" d="M518.6,103.6c4.1-0.1,8,1,12,1.5c1.1,2.4-1,3.3-2.2,4.4c-5,4.4-10.2,8.5-15.1,13c-0.5-0.7-1.1-1.4-1.6-2.1
			c-1.1-1.6-1.9-1.2-2.6,0.3c-5.9,12.7-16,21.5-27.1,29.3c-12.4,8.7-25.8,16-39.9,21.8c-0.8-1.4-0.8-1.5,0.5-2.8
			c2.7-2.8,5.8-5.1,8.7-7.6c21.3-18.1,42.6-36.1,63.8-54.4C516.3,106,517.4,104.8,518.6,103.6z"/>
		<path class="st8" d="M518.6,103.6c-0.1,1.2-0.8,2.4-1.8,3.1c-13.7,11.6-27.4,23.3-41.1,34.9c-10.5,8.9-20.9,17.9-31.4,26.9
			c-0.9,0.8-2.7,1.4-2.2,3.3c-6.6,3.1-13.4,5.9-20.3,8.2c-2.3-0.6-0.4-1.5,0-1.9c4.1-3.6,8.2-7.2,12.4-10.7c7.6-6.5,15.3-13,23-19.5
			c7.6-6.4,15.2-12.8,22.7-19.2s15.1-12.9,22.6-19.4c2.4-2.1,5.4-3.7,7-6.6C512.6,102.5,515.6,103.5,518.6,103.6z"/>
		<path class="st3" d="M465.4,193.8c7.9-3.9,16.2-7.2,23.1-12.9c1.4-0.1,1.3,0.8,0.9,1.7c-6.4,26.4-26.4,43.8-53.5,46.3
			c-5.2,0.5-10.4,1.1-15.7,0.6c0.7-1.9,2.5-1.8,4-2.2c5.9-1.6,11.7-3.3,17.2-6.1c10.2-5.3,17.7-13.1,22-23.8
			C463.7,196,464.4,194.7,465.4,193.8z"/>
		<path class="st9" d="M465.4,193.8c-3.3,12.6-11.3,21.3-22.4,27.6c-7.1,4-15,5.9-22.8,8.1c-1.9-5.6,0.2-10.3,3.5-14.6
			c3.9-5,9.3-8.1,15-10.7C447.4,200.2,456.3,196.8,465.4,193.8z"/>
		<path class="st5" d="M233.6,315.1c4.4-1.6,7.3-5.4,10.8-8.3c11.3-9.3,22.4-18.8,33.5-28.2c5.9-5,11.6-10,17.4-15.1
			c1.6-1.4,3-2.9,5.3-3.1c-6,7.5-11.7,15.2-16,23.9c-11.5,9.7-23,19.5-34.4,29.3c-5.3,4.5-10.7,8.9-15.9,13.6
			c-0.8,0.7-1.7,1.6-2.9,0.6C231.6,323.6,232.3,319.3,233.6,315.1z"/>
		<path class="st10" d="M277.6,335.3c-3.5,0.3-5.1,3.4-7.5,5.3c-9.9,8-19.4,16.2-29,24.5c-3.2,2.8-6.3,5.6-9.7,8.2
			c-2.2,1.7-3.1,1-3-1.6c0-3.1,0-6.2,0-9.4c3.5-3.8,7.6-6.7,11.5-10c11.2-9.5,22.2-19.1,33.6-28.4c1-0.8,1.8-2.3,3.5-1.3
			L277.6,335.3z"/>
		<path class="st8" d="M325.8,261.2c0.1-1.3,0.8-2.4,1.9-3.1c9-7.6,18-15.2,27-22.8c7.4-6.2,14.7-12.6,22.1-18.9
			c3.9-3.3,7.7-6.7,11.5-10c0.7-0.6,1.4-1.1,2.1,0c-0.8,3.4-1.8,6.8-1.7,10.4c-4,4.4-8.9,7.9-13.4,11.8c-14,12-28,23.9-42,35.8
			c-0.6,0.5-1,1.1-1.5,1.7C329.1,265.6,326.8,263.8,325.8,261.2z"/>
		<path class="st4" d="M231.3,327.9c3.2-1,5.1-3.8,7.6-5.8c13.2-10.9,26.1-22,39.2-33.1c2.1-1.7,3.5-4.3,6.6-4.6
			c-2.4,5.9-4.4,11.9-6,18c-2.3-0.2-3.5,1.6-5,2.9c-13.6,11.7-27.3,23.2-40.9,34.8c-0.8,0.7-1.6,1.7-2.9,1.3
			C229.7,336.8,230.2,332.3,231.3,327.9z"/>
		<path class="st7" d="M331.8,266.1c-0.9-1.7,0.6-2.2,1.5-2.9c11.5-9.8,23-19.6,34.5-29.3c6.5-5.5,13-11,19.6-16.5
			c0.4-0.2,0.9-0.4,1.4-0.5c0,3.1,0.5,6.1,1.4,9c-3.9,4.6-8.9,8-13.4,11.9c-10.1,8.7-20.2,17.3-30.5,25.9c-0.7,0.5-1.3,1.2-1.5,2
			C340.5,267.3,336.2,267.9,331.8,266.1z"/>
		<path class="st7" d="M276.8,322.7c-4.2,2.4-7.6,5.9-11.3,9c-9.8,8-19.4,16.2-28.9,24.5c-2.6,2.3-5,4.8-8.3,6.3
			c0.4-4-0.8-8.1,0.7-12c14.8-12.6,29.6-25.2,44.5-37.8c1-0.9,2.1-1.9,3.6-1.2L276.8,322.7z"/>
		<path class="st8" d="M277.2,311.4c-4.8,2.5-8.4,6.5-12.5,9.9c-9.7,8-19.1,16.2-28.7,24.2c-2.1,1.8-3.6,4.6-6.8,4.9
			c0.4-3-0.8-6.1,0.8-9c9.3-8,18.7-16,28.1-23.9c6.3-5.4,12.7-10.7,19.1-16.1c2-1.7,1.5,0.2,1.6,1.1
			C278.1,305.4,277.7,308.4,277.2,311.4z"/>
		<path class="st11" d="M344.8,265.8c-1.4-1-0.4-1.7,0.3-2.4c8.8-7.4,17.7-14.8,26.5-22.2c5.5-4.6,10.9-9.3,16.4-14
			c0.6-0.7,1.3-1.1,2.2-1.3l2.2,4.5c-1.7,2.7-4.5,4.3-6.5,6.8c-10.8,12-23,22.1-38.3,27.9C346.7,265.4,345.8,265.6,344.8,265.8z"/>
		<path class="st10" d="M513.3,122.6c1.4-4.2,5.8-5.5,8.4-8.5c2.8-3.2,7.3-4.6,9-9c3.3,0,6.4,0.9,9.5,1.4c2.7,0.5,2.9,1.7,1,3.4
			c-4.1,3.6-8.2,7.3-12.3,10.8c-3.9,3.3-7.8,6.6-11.7,9.9C515.8,127.9,514.5,125.2,513.3,122.6z"/>
		<path class="st12" d="M328.1,293.6c0.7,1.7-1.3,2.5-1.1,4c-1-4.6-3.5-6.3-8.1-5.4c-4.9,1.1-9.3,3.6-12.6,7.4c-0.9,1-2,1.9-3,2.8
			c-0.8-1,0-1.9,0.3-2.8c2-6.5,6.4-11.1,11.9-14.8c1.2-0.9,2.6-1.5,4.1-1.9c6.4-1.5,9.9,1.6,9,8.1
			C328.7,291.9,328.5,292.8,328.1,293.6z"/>
		<path class="st13" d="M328.1,293.6c0-1,0.1-2,0.1-3c0.1-6.5-3.6-9-9.7-6.2c-7,3.2-11.4,8.9-14.5,15.8c-0.7,0.1-1.1-0.1-0.9-0.9
			c2.2-8.2,6.5-14.9,13.6-19.7c1.8-1.2,3.8-1.9,5.8-2.3c3.3-0.7,6.6,1.3,7.4,4.6C331,285.8,330.4,290.1,328.1,293.6z"/>
		<path class="st14" d="M385.9,237.2c-1.3-1-0.1-1.4,0.5-1.9c2.1-1.5,3.3-4.1,5.9-4.9c3.4,5.4,8.8,7.8,14.5,9.8
			c1.1,0.4,2.3,0.7,4.2,1.2c-8.7,2.3-16.2,1.4-23.1-3.3C387.4,237.5,386.7,237.2,385.9,237.2z"/>
		<path class="st15" d="M695,252c-2.8-0.3-4.8-2.2-7.3-3.1c-1-0.4-1.9-1.6-2.9-0.8c-0.8,0.7,0.5,1.7,0.2,2.7
			c-1.5-1.3-2.1-3.3-2.9-5.2C686.6,247.4,691,249.2,695,252z"/>
		<path class="st16" d="M756.3,294.2c0.8-0.5,0-1.1,0.1-1.7l4.3,2.4l2.3,3C760.2,297.1,758.3,295.5,756.3,294.2z"/>
		<path class="st17" d="M584,235c2-0.3,4.1-0.1,6,0.4C587.6,236.8,586,236.6,584,235z"/>
		<path class="st18" d="M296.6,582.1c2.3,0.4,3.4,2.7,5.3,3.7l-0.1,0.9C299.7,585.7,297.9,584.1,296.6,582.1z"/>
		<path class="st19" d="M772.9,438.8l1.3,0.8c0.2,1.5-0.5,2.8-1.3,4.6V438.8z"/>
		<path class="st20" d="M583.8,121.6c0.5,1.1,1.7,0.7,2.5,1l-4,1.6C582,122.5,583,122.1,583.8,121.6z"/>
		<path class="st21" d="M303.2,299.3l0.9,0.9c-0.2,0.7-0.5,1.5-0.7,2.2l-1.6,2.1C302.2,302,302.3,300.5,303.2,299.3z"/>
		<path class="st22" d="M489.4,182.5c-0.2-0.6-0.1-1.4-0.9-1.7c0.2-0.6,0.9-1.4,1.2-1.1C490.6,180.6,490.2,181.6,489.4,182.5z"/>
		<path class="st23" d="M236.6,301.6c1-5.4,2.1-10.8,4.5-15.8c8.8-6.2,16.6-13.6,24.8-20.5c14.2-12,28.4-24,42.5-36.1
			c12.9-11,25.8-22,38.8-33c14-11.9,28-23.8,42-35.7c12.7-10.8,25.5-21.6,38.2-32.5c8.9-7.6,18-15.1,26.7-22.9
			c4.7-1.1,9.4-1.7,14.2-1.5c0.4-0.4,1-0.4,1.5-0.2c1.1,1.8-0.3,2.8-1.4,3.8c-12.1,10.2-24.1,20.5-36.2,30.8
			c-12.9,10.9-25.7,21.8-38.6,32.8c-11.9,10.1-23.7,20.2-35.6,30.3c-14.4,12.3-28.9,24.5-43.4,36.8c-18,15.2-35.9,30.6-53.9,45.8
			c-7,5.9-13.8,11.9-20.9,17.6C239.2,302,238,304.3,236.6,301.6z"/>
		<path class="st24" d="M454.1,105.1c-1.3,4.2-5.3,5.8-8.2,8.4c-9.5,8.4-19.3,16.5-28.9,24.7c-10.8,9.1-21.7,18.2-32.5,27.4
			c-9.4,8-18.6,16.1-28,24.1c-9.1,7.7-18.3,15.3-27.4,23.1s-18.1,15.6-27.2,23.3c-9.1,7.7-18.2,15.4-27.4,23.1
			c-7.5,6.4-14.9,12.8-22.4,19.2c-3,2.6-6.1,5.1-9.2,7.6c-0.7,0.5-1.3,0.8-1.9,0c1.1-5.2,2.8-10.3,5.2-15
			c6.9-4.4,12.7-10.1,18.9-15.3c14.2-12,28.4-24,42.5-36.1c14.6-12.5,29.3-25,43.9-37.4c12.1-10.3,24.2-20.5,36.2-30.8
			c15.7-13.3,31.3-26.8,47.1-40c1.2-0.8,2.1-1.9,2.6-3.1C442.9,106.1,448.6,106.2,454.1,105.1z"/>
		<path class="st25" d="M437.6,108.1c2.3,0.6,0.4,1.5,0,1.9c-4.2,3.8-8.5,7.6-12.9,11.3c-7.6,6.4-15.2,12.8-22.8,19.2
			c-11.1,9.3-22.2,18.7-33.3,28.1c-9.1,7.7-18.1,15.6-27.2,23.3c-9.4,8-18.8,15.9-28.2,23.8c-9.1,7.7-18.1,15.5-27.2,23.3
			c-9.1,7.7-18.2,15.4-27.3,23.1c-3.3,2.8-6.6,5.6-10,8.4c-0.7,0.5-1.4,1.8-2.4,0.4c1-5.1,3.7-9.6,6-14.2
			c12.3-10.5,24.7-21,37.1-31.6c12.7-10.9,25.5-21.7,38.2-32.5c12.2-10.4,24.3-20.7,36.5-31c12.8-10.9,25.7-21.9,38.5-32.8
			c6.6-5.6,13.1-11.5,20-17C427.3,109.6,432.5,109,437.6,108.1z"/>
		<path class="st26" d="M422.6,111.8c-4.8,6.2-11.2,10.5-17,15.6c-7.6,6.6-15.3,13.1-23,19.6c-7.5,6.3-15,12.6-22.5,19
			s-14.9,12.8-22.4,19.1c-7.5,6.4-15.2,12.8-22.8,19.2c-7.4,6.3-14.7,12.6-22.1,18.9c-9.4,8-18.8,15.9-28.2,23.8
			c-3.3,2.8-6.7,5.6-10,8.4c-0.6,0.6-1.4,1-2.3,1.1c2.4-6.3,5.4-12.3,9-18c17.1-13.9,33.8-28.4,50.6-42.7c19.5-16.6,39-33,58.4-49.7
			c10.9-9.4,22.3-18.4,32.9-28.3C409.4,115.3,415.9,113.3,422.6,111.8z"/>
		<path class="st27" d="M403.1,117.9c0.8,1.3-0.6,1.7-1.2,2.3c-8.3,7.3-16.7,14.5-25.1,21.7c-7.4,6.3-14.8,12.5-22.2,18.8
			c-9.2,7.8-18.4,15.6-27.6,23.3c-7.5,6.4-14.9,12.8-22.4,19.1c-9.4,8-18.8,15.9-28.1,23.8c-3.9,3.3-7.8,6.7-11.6,10
			c-1,1-2.3,1.6-3.6,1.8c4.6-9.3,10.2-18.1,16.5-26.2c5.8-4.3,11.1-9.2,16.6-13.8c14.3-12.1,28.5-24.2,42.7-36.3
			c11-9.4,22-18.8,33-28.1c1.7-1.4,3.8-2.4,5.1-4.3C384,124.5,393.6,121.3,403.1,117.9z"/>
		<path class="st28" d="M561.3,452.4c-7.5,6.2-15,12.5-25,16.8c2.9-5.8,5.1-11.9,6.6-18.2c5.9-26,0.4-49.7-14.9-71.2
			c-3.8-5.3-8.9-9.4-13.4-14.1c-0.7-0.8-1.5-1.7-2.8-1.1c-1.4-0.7-2-2-3-3c0.6-0.8,1.3-0.4,2,0c18.1,10.3,33.2,23.6,42.5,42.7
			c4.5,9.4,7.3,19.6,8.2,30C562.1,440.3,562,446.4,561.3,452.4z"/>
		<path class="st29" d="M236.6,301.6c3,1.1,4-1.9,5.5-3.1c15.2-12.6,30.2-25.4,45.2-38.3c14.2-12.1,28.2-24.3,42.4-36.4
			c15.8-13.4,31.7-26.7,47.6-40.1c14.2-12.1,28.3-24.3,42.5-36.4c15.3-13,30.6-26.1,46-39.2c1.6-1.3,3.8-2,4.1-4.5
			c0.9-0.8,2.1,0.1,3-0.7h3.8c-1.1,4-5,5.4-7.7,7.8c-7.8,7-15.9,13.6-23.8,20.3c-9.1,7.7-18.3,15.4-27.4,23.1
			c-7.4,6.3-14.7,12.6-22.1,18.9c-10.9,9.2-21.9,18.4-32.7,27.7c-7.4,6.3-14.7,12.6-22.1,18.9c-9.4,8-18.8,15.9-28.2,23.8
			c-7.4,6.3-14.7,12.6-22.1,18.9c-7.6,6.4-15.2,12.8-22.8,19.2s-15.1,13-22.7,19.4c-2.6,2.2-5.4,4.4-8.1,6.6c-0.6,0.5-1.2,0.9-1.9,0
			C235.1,305.6,235.6,303.5,236.6,301.6z"/>
		<path class="st30" d="M375.3,129.8c-0.6,3.6-4.1,4.5-6.3,6.5c-7.7,6.9-15.6,13.4-23.5,20.1c-9.2,7.8-18.4,15.5-27.6,23.3
			c-7.4,6.3-14.7,12.6-22.1,18.9c-5.4,4.6-10.7,9.2-16.1,13.8c-0.6,0.5-1.2,0.9-1.9,0c3.9-6,8.3-11.7,13.1-17.1
			c17.6-20.5,37.7-38.3,60.7-52.6C359.3,138,366.9,133.1,375.3,129.8z"/>
		<path class="st8" d="M505.1,102.9c-2.5-0.3-5.1,0.8-7.5-0.7C500.1,102.5,502.7,101.4,505.1,102.9z"/>
		<path class="st6" d="M472.8,102.9c-0.8,1.1-2,0.6-3,0.7h-1.5C469.7,102.3,471.3,103.1,472.8,102.9z"/>
		<path class="st28" d="M400.8,624.9c24.5,1.1,48.9-2.8,71.8-11.3c22.3-8.1,43.1-19.8,61.6-34.7c18.1-14.7,33.7-31.5,44.1-52.6
			c5.6-11.3,9.1-23.5,10.2-36c1-11.3-0.9-22-4-32.6c0.3-2.6,2.7-3.8,4.1-5.6c5.4-7.1,9.3-14.7,11-23.5c0.3-1.2,0.7-2.3,1.2-3.4
			c3.4,6.8,6.1,13.9,8,21.2c2.6,10.3,4.1,20.8,3.3,31.4c-1.4,18.4-6.9,36.3-16.1,52.3c-9.2,16.2-21,30-34.6,42.4
			c-12,10.7-25.2,20-39.4,27.5c-17.1,9.3-35.3,16.2-54.3,20.7c-11.8,2.8-23.9,4.5-36,5.2c-5.9,0.3-11.7,0.8-17.5,0.5
			C409.9,626,405.3,626.3,400.8,624.9z"/>
	</g>
</g>
</svg>
