<?xml version="1.0" encoding="iso-8859-1"?>
<!-- Uploaded to: SVG Repo, www.svgrepo.com, Generator: SVG Repo Mixer Tools -->
<svg fill="#000000" height="800px" width="800px" version="1.1" id="Capa_1" xmlns="http://www.w3.org/2000/svg" xmlns:xlink="http://www.w3.org/1999/xlink" 
	 viewBox="0 0 490 490" xml:space="preserve">
<g>
	<path d="M309.713,296.246c52.98-24.629,89.817-78.385,89.817-140.915C399.53,69.545,330.345,0,245,0S90.47,69.545,90.47,155.332
		c0,62.523,36.831,116.275,89.801,140.908c16.753,57.946,50.682,125.857,55.671,135.645l5.764,11.421
		c-72.419,0.308-130.615,10.624-130.615,23.332C111.091,479.541,171.044,490,245,490c73.956,0,133.909-10.459,133.909-23.362
		c0-12.707-58.186-23.022-130.596-23.332l5.801-11.421C259.059,422.037,292.957,354.149,309.713,296.246z M209.673,287.739
		l-3.868-13.378l-12.628-5.872c-43.8-20.369-72.101-64.785-72.101-113.157c0-68.775,55.593-124.727,123.925-124.727
		c68.333,0,123.925,55.952,123.925,124.727c0,48.378-28.306,92.797-72.113,113.162l-12.627,5.87l-3.87,13.376
		c-8.981,31.034-23.516,65.872-35.322,92.015C233.32,353.956,218.727,319.057,209.673,287.739z"/>
	<ellipse cx="245" cy="155.332" rx="51.351" ry="51.617"/>
</g>
</svg>