<?xml version="1.0" encoding="UTF-8" standalone="no"?>
<svg
   xmlns:dc="http://purl.org/dc/elements/1.1/"
   xmlns:cc="http://creativecommons.org/ns#"
   xmlns:rdf="http://www.w3.org/1999/02/22-rdf-syntax-ns#"
   xmlns:svg="http://www.w3.org/2000/svg"
   xmlns="http://www.w3.org/2000/svg"
   xmlns:sodipodi="http://sodipodi.sourceforge.net/DTD/sodipodi-0.dtd"
   xmlns:inkscape="http://www.inkscape.org/namespaces/inkscape"
   width="290"
   height="181"
   viewBox="0 0 290 181"
   fill="none"
   version="1.1"
   id="svg48"
   sodipodi:docname="weth-usdc.svg"
   inkscape:version="1.0.1 (3bc2e813f5, 2020-09-07)">
  <metadata
     id="metadata52">
    <rdf:RDF>
      <cc:Work
         rdf:about="">
        <dc:format>image/svg+xml</dc:format>
        <dc:type
           rdf:resource="http://purl.org/dc/dcmitype/StillImage" />
      </cc:Work>
    </rdf:RDF>
  </metadata>
  <sodipodi:namedview
     pagecolor="#ffffff"
     bordercolor="#666666"
     borderopacity="1"
     objecttolerance="10"
     gridtolerance="10"
     guidetolerance="10"
     inkscape:pageopacity="0"
     inkscape:pageshadow="2"
     inkscape:window-width="1920"
     inkscape:window-height="1009"
     id="namedview50"
     showgrid="false"
     inkscape:zoom="3.6586207"
     inkscape:cx="145"
     inkscape:cy="90.5"
     inkscape:window-x="-8"
     inkscape:window-y="-8"
     inkscape:window-maximized="1"
     inkscape:current-layer="svg48" />
  <g
     clip-path="url(#clip0_6585_34952)"
     id="g24">
    <path
       d="M186.085 150.438C219.566 150.438 246.501 123.503 246.501 90.0216C246.501 56.5405 219.566 29.605 186.085 29.605C152.604 29.605 125.668 56.5405 125.668 90.0216C125.668 123.503 152.604 150.438 186.085 150.438Z"
       fill="#2775CA"
       id="path18" />
    <path
       d="M202.698 99.5858C202.698 90.7752 197.411 87.7544 186.838 86.4959C179.286 85.4888 177.776 83.4751 177.776 79.9504C177.776 76.4257 180.293 74.1606 185.328 74.1606C189.859 74.1606 192.377 75.671 193.635 79.4471C193.887 80.2023 194.642 80.7056 195.398 80.7056H199.425C200.432 80.7056 201.187 79.9504 201.187 78.9438V78.6919C200.18 73.1535 195.649 68.8742 189.859 68.3709V62.3292C189.859 61.3221 189.104 60.5669 187.846 60.3149H184.069C183.062 60.3149 182.307 61.0701 182.055 62.3292V68.119C174.503 69.1261 169.721 74.1606 169.721 80.4542C169.721 88.7615 174.755 92.0337 185.328 93.2928C192.377 94.5513 194.642 96.0617 194.642 100.09C194.642 104.118 191.118 106.887 186.335 106.887C179.79 106.887 177.524 104.117 176.769 100.341C176.517 99.3344 175.762 98.8306 175.007 98.8306H170.727C169.721 98.8306 168.965 99.5858 168.965 100.593V100.845C169.972 107.138 174 111.669 182.307 112.928V118.97C182.307 119.976 183.062 120.732 184.321 120.984H188.097C189.104 120.984 189.859 120.228 190.111 118.97V112.928C197.663 111.669 202.698 106.383 202.698 99.5858Z"
       fill="white"
       id="path20" />
    <path
       d="M173.245 126.021C153.609 118.973 143.54 97.0723 150.841 77.6882C154.617 67.1153 162.924 59.0599 173.245 55.2839C174.252 54.7806 174.755 54.0254 174.755 52.7663V49.2422C174.755 48.2351 174.252 47.4798 173.245 47.2285C172.993 47.2285 172.49 47.2285 172.238 47.4798C148.323 55.0319 135.232 80.4577 142.785 104.372C147.316 118.469 158.141 129.294 172.238 133.826C173.245 134.329 174.252 133.826 174.503 132.818C174.755 132.567 174.755 132.315 174.755 131.812V128.287C174.755 127.532 174 126.525 173.245 126.021ZM199.929 47.4798C198.922 46.9766 197.915 47.4798 197.663 48.487C197.411 48.7389 197.411 48.9903 197.411 49.4941V53.0182C197.411 54.0254 198.167 55.0319 198.922 55.5358C218.557 62.584 228.627 84.4851 221.326 103.869C217.55 114.442 209.243 122.497 198.922 126.273C197.915 126.777 197.411 127.532 197.411 128.791V132.315C197.411 133.322 197.915 134.077 198.922 134.329C199.174 134.329 199.677 134.329 199.929 134.077C223.844 126.525 236.934 101.1 229.382 77.1849C224.851 62.836 213.774 52.0111 199.929 47.4798Z"
       fill="white"
       id="path22" />
  </g>
  <defs
     id="defs46">
    <filter
       id="filter0_d_6585_34952"
       x="33.8333"
       y="19.9378"
       width="140.167"
       height="140.167"
       filterUnits="userSpaceOnUse"
       color-interpolation-filters="sRGB">
      <feFlood
         flood-opacity="0"
         result="BackgroundImageFix"
         id="feFlood26" />
      <feColorMatrix
         in="SourceAlpha"
         type="matrix"
         values="0 0 0 0 0 0 0 0 0 0 0 0 0 0 0 0 0 0 127 0"
         result="hardAlpha"
         id="feColorMatrix28" />
      <feOffset
         id="feOffset30" />
      <feGaussianBlur
         stdDeviation="4.83333"
         id="feGaussianBlur32" />
      <feComposite
         in2="hardAlpha"
         operator="out"
         id="feComposite34" />
      <feColorMatrix
         type="matrix"
         values="0 0 0 0 0 0 0 0 0 0 0 0 0 0 0 0 0 0 1 0"
         id="feColorMatrix36" />
      <feBlend
         mode="normal"
         in2="BackgroundImageFix"
         result="effect1_dropShadow_6585_34952"
         id="feBlend38" />
      <feBlend
         mode="normal"
         in="SourceGraphic"
         in2="effect1_dropShadow_6585_34952"
         result="shape"
         id="feBlend40" />
    </filter>
    <clipPath
       id="clip0_6585_34952">
      <rect
         width="120.833"
         height="120.833"
         fill="white"
         transform="translate(125.667 29.6045)"
         id="rect43" />
    </clipPath>
  </defs>
  <g
     filter="url(#filter0_d_6585_34952)"
     id="g16">
    <rect
       x="43.5"
       y="29.6045"
       width="120.833"
       height="120.833"
       rx="60.416698"
       fill="#627eea"
       id="rect2" />
    <path
       d="M 105.797,44.7085 V 78.202 l 28.309,12.6497 z"
       fill="#ffffff"
       fill-opacity="0.602"
       id="path4" />
    <path
       d="M 105.797,44.7085 77.4844,90.8517 105.797,78.202 Z"
       fill="#ffffff"
       id="path6" />
    <path
       d="m 105.797,112.556 v 22.759 l 28.328,-39.192 z"
       fill="#ffffff"
       fill-opacity="0.602"
       id="path8" />
    <path
       d="M 105.797,135.315 V 112.553 L 77.4844,96.123 Z"
       fill="#ffffff"
       id="path10" />
    <path
       d="M 105.797,107.289 134.106,90.8517 105.797,78.2095 Z"
       fill="#ffffff"
       fill-opacity="0.2"
       id="path12" />
    <path
       d="M 77.4844,90.8517 105.797,107.289 V 78.2095 Z"
       fill="#ffffff"
       fill-opacity="0.602"
       id="path14" />
  </g>
</svg>
