<?xml version="1.0" encoding="UTF-8" standalone="no"?>
<svg
   xmlns:dc="http://purl.org/dc/elements/1.1/"
   xmlns:cc="http://creativecommons.org/ns#"
   xmlns:rdf="http://www.w3.org/1999/02/22-rdf-syntax-ns#"
   xmlns:svg="http://www.w3.org/2000/svg"
   xmlns="http://www.w3.org/2000/svg"
   xmlns:sodipodi="http://sodipodi.sourceforge.net/DTD/sodipodi-0.dtd"
   xmlns:inkscape="http://www.inkscape.org/namespaces/inkscape"
   width="312"
   height="80"
   viewBox="0 0 312 80"
   fill="none"
   version="1.1"
   id="svg24"
   sodipodi:docname="Good Entry Logo.svg"
   inkscape:version="1.0.1 (3bc2e813f5, 2020-09-07)">
  <metadata
     id="metadata30">
    <rdf:RDF>
      <cc:Work
         rdf:about="">
        <dc:format>image/svg+xml</dc:format>
        <dc:type
           rdf:resource="http://purl.org/dc/dcmitype/StillImage" />
        <dc:title />
      </cc:Work>
    </rdf:RDF>
  </metadata>
  <defs
     id="defs28" />
  <sodipodi:namedview
     pagecolor="#ffffff"
     bordercolor="#666666"
     borderopacity="1"
     objecttolerance="10"
     gridtolerance="10"
     guidetolerance="10"
     inkscape:pageopacity="0"
     inkscape:pageshadow="2"
     inkscape:window-width="1920"
     inkscape:window-height="1009"
     id="namedview26"
     showgrid="false"
     inkscape:zoom="1.7003205"
     inkscape:cx="133.79279"
     inkscape:cy="14.221191"
     inkscape:window-x="-8"
     inkscape:window-y="104"
     inkscape:window-maximized="1"
     inkscape:current-layer="svg24"
     inkscape:document-rotation="0" />
  <path
     d="M42.4586 33.0394C44.6687 33.1196 46.8955 33.0533 49.0835 33.3185C51.0118 33.5533 52.9374 34.0064 54.5923 35.1778C56.5068 36.5315 57.6174 38.3797 58.1285 40.6396C58.5567 42.521 58.4296 44.4023 58.2169 46.2865C58.1506 46.8694 58.0539 47.4551 57.8882 48.0159C57.7252 48.5629 57.8578 49.0188 58.0622 49.5243C58.8661 51.4914 59.264 53.5137 58.8717 55.6547C58.6037 57.1162 58.0208 58.4119 57.0124 59.4893C56.598 59.9314 56.4654 60.3983 56.446 60.9895C56.3797 63.0781 55.9957 65.0782 54.7138 66.8215C54.0453 67.7332 53.1971 68.4294 52.3241 69.1173C52.0617 69.3272 51.8185 69.6256 51.6915 69.935C51.4345 70.5704 51.2715 71.2445 51.0505 71.8965C50.6168 73.1867 49.9675 74.394 49.0531 75.3665C47.7519 76.7506 46.1495 77.6125 44.1714 77.8004C42.5829 77.9496 41.0386 77.8612 39.497 77.5545C38.2427 77.3059 37.1156 77.6153 36.016 78.1761C35.2314 78.5767 34.4606 79.0104 33.6484 79.3392C31.8748 80.0603 30.0293 80.1376 28.1534 79.8282C26.3853 79.5381 24.7056 78.9469 23.164 78.0877C21.3186 77.0572 19.5118 75.9273 17.9564 74.4575C17.4121 73.9437 16.8624 73.4409 16.296 72.9546C15.2821 72.0872 14.1163 71.996 12.8841 72.3441C12.3509 72.496 11.826 72.695 11.2983 72.8635C9.78989 73.3525 8.50525 72.8801 7.4278 71.8468C6.03265 70.5069 4.99388 68.8769 3.96893 67.2469C2.65942 65.1694 1.60684 62.9537 0.921692 60.5999C0.159192 57.9809 -0.302176 55.2928 0.228258 52.5661C0.529391 51.0134 0.833285 49.4332 1.72839 48.0574C2.06268 47.5407 2.35552 46.9965 2.65113 46.4578C3.46336 44.9742 4.84746 44.3747 6.39732 44.057C8.62128 43.6012 10.3756 42.4132 11.9033 40.7639C12.9974 39.5842 13.5416 38.1062 14.3345 36.7635C15.0639 35.5286 15.6219 34.1942 16.3015 32.9289C17.4177 30.8597 18.5393 28.7877 19.7273 26.7571C20.6196 25.2349 21.5976 23.7568 22.5866 22.2954C23.095 21.5439 23.4016 20.7455 23.584 19.8697C24.084 17.469 24.142 15.0212 24.3824 12.5956C24.5288 11.1424 24.8382 9.70584 25.0648 8.25819C25.2305 7.20285 25.6864 6.26906 26.2195 5.3629C27.1147 3.85448 28.4656 3.13342 30.1895 3.08369C32.9522 3.00634 34.9607 4.31585 36.5547 6.48179C38.2455 8.78034 39.1185 11.3607 39.4528 14.162C39.6849 16.1042 39.2401 17.9386 38.5218 19.704C37.215 22.9059 36.0022 26.1327 35.5602 29.5916C35.4773 30.2353 35.4497 30.8735 35.6292 31.5338C35.8862 32.4786 36.2011 32.8985 37.1653 33.0229C38.0411 33.1361 38.9279 33.1941 39.8092 33.2024C40.6905 33.2107 41.5718 33.1334 42.4531 33.0919C42.4558 33.0836 42.4586 33.0615 42.4586 33.0394ZM42.7625 36.7525C42.7625 36.7691 42.7625 36.7856 42.7625 36.8022C42.5056 36.8188 42.2486 36.8381 41.9917 36.8492C40.2567 36.9017 38.5245 37.0066 36.7923 36.7304C34.386 36.3464 33.024 34.8158 32.4135 32.6582C31.8554 30.6856 32.0875 28.6744 32.5074 26.7295C33.1953 23.5413 34.3501 20.4913 35.5906 17.4773C35.9801 16.5324 36.2315 15.5489 36.0768 14.5101C35.9691 13.7697 35.8945 13.01 35.6928 12.2917C35.1292 10.2749 34.1705 8.5096 32.4107 7.24153C31.3747 6.4956 29.2806 6.62269 28.8441 8.03442C28.7115 8.46539 28.4159 8.86322 28.3468 9.29696C28.0982 10.8717 27.891 12.4575 27.7086 14.0405C27.4628 16.2037 27.3163 18.3807 27.0152 20.5355C26.8108 21.986 26.2859 23.3397 25.4018 24.5635C24.4487 25.8841 23.5563 27.2544 22.733 28.6578C21.5589 30.6608 20.4704 32.7162 19.346 34.7495C19.0449 35.2938 18.7299 35.827 18.4537 36.3795C17.6967 37.899 16.9701 39.435 16.1993 40.949C15.9369 41.4684 15.633 41.9822 15.26 42.4243C14.4699 43.3608 13.6908 44.3001 12.7128 45.082C11.069 46.397 9.25117 47.3142 7.20955 47.7203C6.24261 47.9109 5.58233 48.3917 5.12096 49.1818C3.99103 51.1101 3.45783 53.2125 3.45783 55.4448C3.45507 57.9864 4.28387 60.3292 5.28396 62.6112C6.28681 64.9014 7.7538 66.9071 9.28433 68.8686C9.6269 69.3079 10.0385 69.3714 10.5082 69.2416C11.0138 69.1035 11.4945 68.8769 12.0028 68.7526C14.4422 68.1476 16.6441 68.515 18.5117 70.3329C19.2825 71.0815 20.0836 71.8137 20.9484 72.4435C22.5811 73.6425 24.247 74.7835 26.1726 75.5239C27.7086 76.1152 29.2447 76.4163 30.8747 76.1897C31.1509 76.1511 31.4134 76.0046 31.6841 75.9079C31.499 75.7035 31.3416 75.4604 31.1261 75.2946C30.2006 74.5791 29.5237 73.7144 29.1397 72.5789C28.659 71.1534 28.6756 69.7444 29.0513 68.3272C29.1784 67.8409 29.6867 67.3492 29.6066 66.9431C29.5099 66.4596 28.9215 66.0949 28.6231 65.6308C27.6561 64.1306 27.5595 62.4316 27.7307 60.7381C27.8109 59.9535 27.9904 59.1274 28.5982 58.4782C29.0347 58.0113 28.9684 57.4477 28.7944 56.8289C27.9518 53.8618 28.4048 51.2041 30.8857 49.1459C31.2587 48.8364 31.3526 48.5049 31.3084 48.1402C31.0708 46.2672 31.8609 44.72 32.9964 43.405C34.5104 41.6535 36.5851 40.8689 38.8643 40.6119C40.6242 40.413 42.3647 40.5318 44.1079 40.844C45.7213 41.1341 47.2822 41.1617 48.4591 39.6533C48.8956 39.0925 50.1444 39.1588 50.6527 39.6257C51.324 40.2417 51.5616 41.496 51.0947 42.1425C49.7548 43.9852 47.8734 44.72 45.6661 44.6897C44.9201 44.6786 44.1714 44.5432 43.4338 44.4106C41.9364 44.1371 40.428 44.1178 38.9362 44.3664C37.5327 44.6013 36.2453 45.1483 35.2811 46.2782C34.2921 47.4358 34.5463 48.4939 35.9773 48.9801C36.7509 49.2426 37.5383 49.4719 38.3394 49.6293C40.4474 50.041 42.5663 50.4056 44.6798 50.7814C45.0969 50.856 45.5224 50.9167 45.9451 50.9333C49.0089 51.0521 51.6058 49.8421 53.9928 48.0684C54.2552 47.8723 54.4901 47.5159 54.5564 47.1954C54.9846 45.151 55.2581 43.0735 54.7801 41.0181C54.5232 39.913 53.8906 38.935 52.8711 38.2913C51.5975 37.4874 50.1858 37.0619 48.7078 36.9652C46.7269 36.8215 44.7433 36.8133 42.7625 36.7525ZM45.6716 59.6137C45.6799 59.5833 45.6826 59.5529 45.6909 59.5253C46.0418 59.5087 46.3954 59.4838 46.7463 59.4783C48.7022 59.4396 50.5367 58.8567 52.3435 58.1881C52.8601 57.9975 53.4126 57.7986 53.8298 57.4588C55.2802 56.2763 55.8825 54.7348 55.5426 52.8672C55.3327 51.7152 55.3354 51.7317 54.3132 52.334C51.5202 53.9833 48.531 54.9668 45.2544 54.6077C43.2211 54.3839 41.2016 53.9806 39.1848 53.6104C37.4222 53.2844 35.6652 52.928 34.0711 52.0246C33.5904 51.7511 33.1373 52.0246 32.7505 52.3754C31.7587 53.2733 31.5957 54.3977 31.9466 55.5967C32.0737 56.036 32.3748 56.5471 32.7505 56.7709C33.6705 57.3179 34.6319 57.8069 35.7259 57.9837C36.9194 58.1798 38.088 58.5224 39.2815 58.7103C41.4088 59.0445 43.5443 59.3153 45.6716 59.6137ZM45.1384 67.0038C46.3098 66.8574 47.6497 66.7801 48.9454 66.4983C50.9925 66.0562 52.1777 64.6417 52.7661 62.6885C52.8186 62.5145 52.7938 62.3183 52.8048 62.1332C52.5921 62.147 52.3738 62.1332 52.1694 62.183C51.0947 62.4399 50.0366 62.7935 48.9509 62.9676C47.2132 63.2438 45.4671 63.3902 43.7046 63.0173C42.558 62.7742 41.3867 62.6471 40.2236 62.4979C37.7952 62.1912 35.3806 61.8349 33.0931 60.8983C32.7671 60.7657 32.4356 60.6359 32.1068 60.5088C31.7808 60.3844 31.5405 60.4508 31.3913 60.7961C31.0156 61.6719 30.9051 62.5559 31.2918 63.4538C31.3664 63.6251 31.4742 63.8267 31.6234 63.9096C32.2781 64.2688 32.9246 64.6694 33.6235 64.9125C35.3253 65.5009 37.0879 65.8573 38.8726 66.1032C40.906 66.3878 42.9338 66.6861 45.1384 67.0038ZM42.0166 74.2227C42.5 74.2006 43.0028 74.2476 43.4752 74.1398C44.7185 73.858 45.9976 73.6122 46.7518 72.3938C47.0087 71.9767 47.3043 71.5816 47.5502 71.1561C47.8044 70.7196 47.669 70.5262 47.1275 70.5428C46.4424 70.5649 45.7462 70.7031 45.0748 70.6285C42.8757 70.3854 40.6822 70.1063 38.4969 69.7665C36.9166 69.5206 35.353 69.1642 33.7838 68.841C33.3307 68.7471 32.9356 68.8079 32.6179 69.1532C31.8858 69.9461 32.0737 71.5595 32.919 72.2446C33.8777 73.0237 35.0242 73.2889 36.1763 73.4713C38.1129 73.7807 40.0633 73.9768 42.0166 74.2227Z"
     fill="#0FFD6A"
     id="path2" />
  <path
     d="M51.7494 0.586244C55.8989 1.85155 59.2583 4.25508 61.8028 7.76369C62.231 8.35214 62.5736 9.02899 62.8388 9.70861C63.3526 11.0126 63.3222 12.2945 62.4548 13.4852C61.847 14.3195 61.195 15.1318 60.7005 16.0324C59.4794 18.2398 57.4875 18.4332 55.3657 18.0602C52.0919 17.4856 49.3044 15.8362 46.7959 13.7283C45.2073 12.3939 43.8453 10.8524 42.9834 8.92125C42.3452 7.49018 42.1463 6.12542 43.1906 4.76894C43.8177 3.95671 44.3979 3.09476 44.909 2.19965C46.0279 0.240908 47.7766 -0.206646 49.8293 0.0779101C50.4785 0.163553 51.1084 0.412195 51.7494 0.586244ZM54.8574 15.6484C55.3795 15.7009 56.0371 15.8003 56.6946 15.8224C58.3107 15.8749 58.703 15.292 58.051 13.8222C57.8742 13.4189 57.6532 13.0238 57.388 12.6757C54.8878 9.45445 51.788 7.13656 47.7407 6.18343C46.7765 5.95689 45.7488 5.58946 45.1107 6.4818C44.4476 7.4073 45.1797 8.32727 45.7323 9.09254C48.0087 12.242 51.1222 14.256 54.8574 15.6484ZM50.5476 2.50354C50.0558 2.48144 49.1055 2.36541 48.1662 2.43724C47.8236 2.46487 47.5169 2.93452 47.191 3.2025C47.4672 3.39036 47.7214 3.66663 48.028 3.74951C52.8213 5.04797 56.7609 7.55649 59.5236 11.764C59.6009 11.8828 59.7225 11.9768 59.833 12.0762C60.2336 12.4354 60.4988 12.2337 60.648 11.8331C61.032 10.8082 60.5734 9.87714 60.0153 9.15055C57.6726 6.10055 54.664 3.91527 50.5476 2.50354Z"
     fill="#0FFD6A"
     id="path4" />
  <path
     d="M109.068 46.6953C108.866 51.5549 106.963 56.0663 103.606 59.3732C100.2 62.8293 95.5887 64.7356 90.7291 64.7356C85.6679 64.7356 81.0073 62.7824 77.5512 59.1743C74.1448 55.616 72.291 50.9056 72.291 45.8969C72.291 35.5258 80.7089 27.0582 91.1297 27.0582C94.2875 27.0582 97.3927 27.8593 100.15 29.3125C102.103 30.4148 102.805 32.8211 101.752 34.7743C100.7 36.7275 98.2436 37.4293 96.3401 36.3767C94.7378 35.5258 92.9338 35.023 91.1297 35.023C85.1679 35.023 80.3056 39.9323 80.3056 45.8969C80.3056 48.853 81.3581 51.6101 83.3113 53.6131C85.2148 55.616 87.8698 56.7708 90.7264 56.7708C95.3373 56.7708 99.1443 53.765 100.498 49.5049H91.3314C89.4279 49.5049 87.8228 47.9523 87.8228 45.9963C87.8228 44.0929 89.4252 42.4877 91.3314 42.4877H105.261C107.465 42.5375 109.217 44.441 109.068 46.6953Z"
     fill="white"
     id="path6"
     inkscape:label="path6"
     style="fill:#ffffff;fill-opacity:1" />
  <path
     d="M137.979 52.008C137.979 59.0722 132.216 64.8352 125.152 64.8352C118.088 64.8352 112.325 59.0722 112.325 52.008C112.325 44.9439 118.088 39.1809 125.152 39.1809C132.216 39.1809 137.979 44.9411 137.979 52.008ZM120.293 52.008C120.293 54.7127 122.448 56.8676 125.152 56.8676C127.857 56.8676 130.012 54.7127 130.012 52.008C130.012 49.3034 127.857 47.1485 125.152 47.1485C122.448 47.1485 120.293 49.3006 120.293 52.008Z"
     fill="white"
     id="path8"
     style="fill:#ffffff;fill-opacity:1" />
  <path
     d="M166.64 52.008C166.64 59.0722 160.877 64.8352 153.812 64.8352C146.748 64.8352 140.985 59.0722 140.985 52.008C140.985 44.9439 146.748 39.1809 153.812 39.1809C160.877 39.1809 166.64 44.9411 166.64 52.008ZM148.953 52.008C148.953 54.7127 151.108 56.8676 153.812 56.8676C156.517 56.8676 158.672 54.7127 158.672 52.008C158.672 49.3034 156.517 47.1485 153.812 47.1485C151.105 47.1457 148.953 49.3006 148.953 52.008Z"
     fill="white"
     id="path10"
     style="fill:#ffffff;fill-opacity:1" />
  <path
     d="M181.721 39.1808C183.425 39.1808 185.077 39.5316 186.58 40.1339V35.4733C186.58 33.3184 188.285 31.5143 190.489 31.5143H190.84C192.843 31.5641 194.548 33.2686 194.548 35.3213V60.6744C194.548 62.7299 192.843 64.4317 190.741 64.4317C189.639 64.4317 188.685 63.9814 187.984 63.2299C186.13 64.2328 183.975 64.8323 181.721 64.8323C174.657 64.8323 168.894 59.0693 168.894 52.0051C168.894 44.941 174.657 39.1808 181.721 39.1808ZM181.721 56.8675C184.425 56.8675 186.58 54.7126 186.58 52.0079C186.58 49.3032 184.425 47.1484 181.721 47.1484C179.016 47.1484 176.861 49.3032 176.861 52.0079C176.861 54.7126 179.013 56.8675 181.721 56.8675Z"
     fill="white"
     id="path12"
     style="fill:#ffffff;fill-opacity:1" />
  <path
     d="M222.854 60.4755C222.854 62.6304 221.05 64.4345 218.895 64.4345H206.419C204.214 64.4345 202.41 62.6304 202.41 60.4755V31.3127C202.41 29.1578 204.214 27.3538 206.419 27.3538H218.895C221.05 27.3538 222.854 29.1578 222.854 31.3127C222.854 33.567 221.05 35.3711 218.895 35.3711H210.43V42.3855H218.448C220.401 42.3855 221.956 43.9879 221.956 45.8941C221.956 47.8473 220.403 49.4027 218.448 49.4027H210.43V56.4172H218.898C221.053 56.4172 222.854 58.2184 222.854 60.4755Z"
     fill="#0FFD6A"
     id="path14" />
  <path
     d="M248.659 50.1513V60.4726C248.659 62.6275 246.905 64.4316 244.701 64.4316C242.496 64.4316 240.692 62.6275 240.692 60.4726V50.1513C240.692 48.4467 239.338 47.0957 237.636 47.0957C235.935 47.0957 234.531 48.4495 234.531 50.1513V60.4726C234.531 62.6275 232.777 64.4316 230.572 64.4316C228.368 64.4316 226.613 62.6275 226.613 60.4726V43.1865C226.613 41.0814 228.265 39.3796 230.371 39.3796C231.271 39.3796 232.125 39.7304 232.777 40.2305C234.23 39.5288 235.882 39.1282 237.636 39.1282C243.747 39.1282 248.659 44.0899 248.659 50.1513Z"
     fill="#0FFD6A"
     id="path16" />
  <path
     d="M267.049 60.423C267.049 62.6277 265.245 64.4317 263.04 64.4317H262.288C256.376 64.4317 252.166 59.771 252.166 53.9584V35.418C252.166 33.2134 253.97 31.4094 256.175 31.4094C258.379 31.4094 260.183 33.2134 260.183 35.418V39.3769H263.841C265.794 39.3769 267.35 40.9296 267.35 42.8855C267.35 44.789 265.797 46.3417 263.841 46.3417H260.183V53.9584C260.183 55.2099 260.835 56.4144 262.288 56.4144H263.04C265.245 56.4171 267.049 58.2184 267.049 60.423Z"
     fill="#0FFD6A"
     id="path18" />
  <path
     d="M285.437 43.3883C285.338 45.5929 283.434 47.1455 281.23 47.1953C279.476 47.245 278.022 48.549 278.022 50.2508V60.4727C278.022 62.6773 276.268 64.4316 274.063 64.4316C271.859 64.4316 270.104 62.6773 270.104 60.4727V43.1369C270.104 41.0815 271.759 39.3797 273.862 39.3797C274.815 39.3797 275.666 39.7305 276.367 40.3328C278.423 39.2802 280.677 39.2305 281.68 39.2305C283.882 39.2802 285.537 41.1837 285.437 43.3883Z"
     fill="#0FFD6A"
     id="path20" />
  <path
     d="M310.737 44.7918L303.021 63.7328C302.319 65.4871 301.617 67.1889 300.667 68.6421C298.612 71.7473 294.805 73.9519 290.597 73.9519C289.094 73.9519 286.89 72.9491 286.939 70.3936C286.939 68.4404 288.542 66.9375 290.448 66.9375C292.653 66.9872 294.556 65.7854 295.41 63.7797L296.161 62.0254L289.047 44.7891C288.246 42.7336 289.249 40.4296 291.252 39.5787C293.307 38.7278 295.661 39.7278 296.462 41.7335L299.918 50.1514L303.325 41.7335C304.225 39.7306 306.482 38.678 308.585 39.5787C310.638 40.4323 311.591 42.7364 310.737 44.7918Z"
     fill="#0FFD6A"
     id="path22" />
</svg>
