<?xml version="1.0" encoding="UTF-8" standalone="no"?>
<svg
   xmlns:dc="http://purl.org/dc/elements/1.1/"
   xmlns:cc="http://creativecommons.org/ns#"
   xmlns:rdf="http://www.w3.org/1999/02/22-rdf-syntax-ns#"
   xmlns:svg="http://www.w3.org/2000/svg"
   xmlns="http://www.w3.org/2000/svg"
   xmlns:sodipodi="http://sodipodi.sourceforge.net/DTD/sodipodi-0.dtd"
   xmlns:inkscape="http://www.inkscape.org/namespaces/inkscape"
   width="80"
   height="80"
   viewBox="0 0 80 80"
   fill="none"
   version="1.1"
   id="svg24"
   sodipodi:docname="logo.svg"
   inkscape:version="1.0.1 (3bc2e813f5, 2020-09-07)">
  <metadata
     id="metadata30">
    <rdf:RDF>
      <cc:Work
         rdf:about="">
        <dc:format>image/svg+xml</dc:format>
        <dc:type
           rdf:resource="http://purl.org/dc/dcmitype/StillImage" />
        <dc:title />
      </cc:Work>
    </rdf:RDF>
  </metadata>
  <defs
     id="defs28" />
  <sodipodi:namedview
     pagecolor="#ffffff"
     bordercolor="#666666"
     borderopacity="1"
     objecttolerance="10"
     gridtolerance="10"
     guidetolerance="10"
     inkscape:pageopacity="0"
     inkscape:pageshadow="2"
     inkscape:window-width="1920"
     inkscape:window-height="1009"
     id="namedview26"
     showgrid="false"
     inkscape:zoom="4.8092326"
     inkscape:cx="117.80249"
     inkscape:cy="48.35075"
     inkscape:window-x="-8"
     inkscape:window-y="104"
     inkscape:window-maximized="1"
     inkscape:current-layer="svg24"
     inkscape:document-rotation="0" />
  <path
     d="m 53.044839,33.0394 c 2.2101,0.0802 4.4369,0.0139 6.6249,0.2791 1.9283,0.2348 3.8539,0.6879 5.5088,1.8593 1.9145,1.3537 3.0251,3.2019 3.5362,5.4618 0.4282,1.8814 0.3011,3.7627 0.0884,5.6469 -0.0663,0.5829 -0.163,1.1686 -0.3287,1.7294 -0.163,0.547 -0.0304,1.0029 0.174,1.5084 0.8039,1.9671 1.2018,3.9894 0.8095,6.1304 -0.268,1.4615 -0.8509,2.7572 -1.8593,3.8346 -0.4144,0.4421 -0.547,0.909 -0.5664,1.5002 -0.0663,2.0886 -0.4503,4.0887 -1.7322,5.832 -0.6685,0.9117 -1.5167,1.6079 -2.3897,2.2958 -0.2624,0.2099 -0.5056,0.5083 -0.6326,0.8177 -0.257,0.6354 -0.42,1.3095 -0.641,1.9615 -0.4337,1.2902 -1.083,2.4975 -1.9974,3.47 -1.3012,1.3841 -2.9036,2.246 -4.8817,2.4339 -1.5885,0.1492 -3.1328,0.0608 -4.6744,-0.2459 -1.2543,-0.2486 -2.3814,0.0608 -3.481,0.6216 -0.7846,0.4006 -1.5554,0.8343 -2.3676,1.1631 -1.7736,0.7211 -3.6191,0.7984 -5.495,0.489 -1.7681,-0.2901 -3.4478,-0.8813 -4.9894,-1.7405 -1.8454,-1.0305 -3.6522,-2.1604 -5.2076,-3.6302 -0.5443,-0.5138 -1.094,-1.0166 -1.6604,-1.5029 -1.0139,-0.8674 -2.1797,-0.9586 -3.4119,-0.6105 -0.5332,0.1519 -1.0581,0.3509 -1.5858,0.5194 -1.50841,0.489 -2.79305,0.0166 -3.8705,-1.0167 -1.39515,-1.3399 -2.43392,-2.9699 -3.45887,-4.5999 -1.30951,-2.0775 -2.36209,-4.2932 -3.047238,-6.647 -0.7625,-2.619 -1.223868,-5.3071 -0.693434,-8.0338 0.301133,-1.5527 0.605027,-3.1329 1.500132,-4.5087 0.33429,-0.5167 0.62713,-1.0609 0.92274,-1.5996 0.81223,-1.4836 2.19633,-2.0831 3.74619,-2.4008 2.22396,-0.4558 3.97828,-1.6438 5.50598,-3.2931 1.0941,-1.1797 1.6383,-2.6577 2.4312,-4.0004 0.7294,-1.2349 1.2874,-2.5693 1.967,-3.8346 1.1162,-2.0692 2.2378,-4.1412 3.4258,-6.1718 0.8923,-1.5222 1.8703,-3.0003 2.8593,-4.4617 0.5084,-0.7515 0.815,-1.5499 0.9974,-2.4257 0.5,-2.4007 0.558,-4.8485 0.7984,-7.2741 0.1464,-1.4532 0.4558,-2.88976 0.6824,-4.33741 0.1657,-1.05534 0.6216,-1.98913 1.1547,-2.89529 0.8952,-1.50842 2.2461,-2.22948 3.97,-2.27921 2.7627,-0.07735 4.7712,1.23216 6.3652,3.3981 1.6908,2.29855 2.5638,4.87891 2.8981,7.68021 0.2321,1.9422 -0.2127,3.7766 -0.931,5.542 -1.3068,3.2019 -2.5196,6.4287 -2.9616,9.8876 -0.0829,0.6437 -0.1105,1.2819 0.069,1.9422 0.257,0.9448 0.5719,1.3647 1.5361,1.4891 0.8758,0.1132 1.7626,0.1712 2.6439,0.1795 0.8813,0.0083 1.7626,-0.069 2.6439,-0.1105 0.0027,-0.0083 0.0055,-0.0304 0.0055,-0.0525 z m 0.3039,3.7131 c 0,0.0166 0,0.0331 0,0.0497 -0.2569,0.0166 -0.5139,0.0359 -0.7708,0.047 -1.735,0.0525 -3.4672,0.1574 -5.1994,-0.1188 -2.4063,-0.384 -3.7683,-1.9146 -4.3788,-4.0722 -0.5581,-1.9726 -0.326,-3.9838 0.0939,-5.9287 0.6879,-3.1882 1.8427,-6.2382 3.0832,-9.2522 0.3895,-0.9449 0.6409,-1.9284 0.4862,-2.9672 -0.1077,-0.7404 -0.1823,-1.5001 -0.384,-2.2184 -0.5636,-2.0168 -1.5223,-3.7821 -3.2821,-5.05017 -1.036,-0.74593 -3.1301,-0.61884 -3.5666,0.79289 -0.1326,0.43097 -0.4282,0.8288 -0.4973,1.26254 -0.2486,1.57474 -0.4558,3.16054 -0.6382,4.74354 -0.2458,2.1632 -0.3923,4.3402 -0.6934,6.495 -0.2044,1.4505 -0.7293,2.8042 -1.6134,4.028 -0.9531,1.3206 -1.8455,2.6909 -2.6688,4.0943 -1.1741,2.003 -2.2626,4.0584 -3.387,6.0917 -0.3011,0.5443 -0.6161,1.0775 -0.8923,1.63 -0.757,1.5195 -1.4836,3.0555 -2.2544,4.5695 -0.2624,0.5194 -0.5663,1.0332 -0.9393,1.4753 -0.7901,0.9365 -1.5692,1.8758 -2.5472,2.6577 -1.6438,1.315 -3.46163,2.2322 -5.50325,2.6383 -0.96694,0.1906 -1.62722,0.6714 -2.08859,1.4615 -1.12993,1.9283 -1.66313,4.0307 -1.66313,6.263 -0.0028,2.5416 0.82604,4.8844 1.82613,7.1664 1.00285,2.2902 2.46984,4.2959 4.00037,6.2574 0.34257,0.4393 0.75417,0.5028 1.22387,0.373 0.5056,-0.1381 0.9863,-0.3647 1.4946,-0.489 2.4394,-0.605 4.6413,-0.2376 6.5089,1.5803 0.7708,0.7486 1.5719,1.4808 2.4367,2.1106 1.6327,1.199 3.2986,2.34 5.2242,3.0804 1.536,0.5913 3.0721,0.8924 4.7021,0.6658 0.2762,-0.0386 0.5387,-0.1851 0.8094,-0.2818 -0.1851,-0.2044 -0.3425,-0.4475 -0.558,-0.6133 -0.9255,-0.7155 -1.6024,-1.5802 -1.9864,-2.7157 -0.4807,-1.4255 -0.4641,-2.8345 -0.0884,-4.2517 0.1271,-0.4863 0.6354,-0.978 0.5553,-1.3841 -0.0967,-0.4835 -0.6851,-0.8482 -0.9835,-1.3123 -0.967,-1.5002 -1.0636,-3.1992 -0.8924,-4.8927 0.0802,-0.7846 0.2597,-1.6107 0.8675,-2.2599 0.4365,-0.4669 0.3702,-1.0305 0.1962,-1.6493 -0.8426,-2.9671 -0.3896,-5.6248 2.0913,-7.683 0.373,-0.3095 0.4669,-0.641 0.4227,-1.0057 -0.2376,-1.873 0.5525,-3.4202 1.688,-4.7352 1.514,-1.7515 3.5887,-2.5361 5.8679,-2.7931 1.7599,-0.1989 3.5004,-0.0801 5.2436,0.2321 1.6134,0.2901 3.1743,0.3177 4.3512,-1.1907 0.4365,-0.5608 1.6853,-0.4945 2.1936,-0.0276 0.6713,0.616 0.9089,1.8703 0.442,2.5168 -1.3399,1.8427 -3.2213,2.5775 -5.4286,2.5472 -0.746,-0.0111 -1.4947,-0.1465 -2.2323,-0.2791 -1.4974,-0.2735 -3.0058,-0.2928 -4.4976,-0.0442 -1.4035,0.2349 -2.6909,0.7819 -3.6551,1.9118 -0.989,1.1576 -0.7348,2.2157 0.6962,2.7019 0.7736,0.2625 1.561,0.4918 2.3621,0.6492 2.108,0.4117 4.2269,0.7763 6.3404,1.1521 0.4171,0.0746 0.8426,0.1353 1.2653,0.1519 3.0638,0.1188 5.6607,-1.0912 8.0477,-2.8649 0.2624,-0.1961 0.4973,-0.5525 0.5636,-0.873 0.4282,-2.0444 0.7017,-4.1219 0.2237,-6.1773 -0.2569,-1.1051 -0.8895,-2.0831 -1.909,-2.7268 -1.2736,-0.8039 -2.6853,-1.2294 -4.1633,-1.3261 -1.9809,-0.1437 -3.9645,-0.1519 -5.9453,-0.2127 z m 2.9091,22.8612 c 0.0083,-0.0304 0.011,-0.0608 0.0193,-0.0884 0.3509,-0.0166 0.7045,-0.0415 1.0554,-0.047 1.9559,-0.0387 3.7904,-0.6216 5.5972,-1.2902 0.5166,-0.1906 1.0691,-0.3895 1.4863,-0.7293 1.4504,-1.1825 2.0527,-2.724 1.7128,-4.5916 -0.2099,-1.152 -0.2072,-1.1355 -1.2294,-0.5332 -2.793,1.6493 -5.7822,2.6328 -9.0588,2.2737 -2.0333,-0.2238 -4.0528,-0.6271 -6.0696,-0.9973 -1.7626,-0.326 -3.5196,-0.6824 -5.1137,-1.5858 -0.4807,-0.2735 -0.9338,0 -1.3206,0.3508 -0.9918,0.8979 -1.1548,2.0223 -0.8039,3.2213 0.1271,0.4393 0.4282,0.9504 0.8039,1.1742 0.92,0.547 1.8814,1.036 2.9754,1.2128 1.1935,0.1961 2.3621,0.5387 3.5556,0.7266 2.1273,0.3342 4.2628,0.605 6.3901,0.9034 z m -0.5332,7.3901 c 1.1714,-0.1464 2.5113,-0.2237 3.807,-0.5055 2.0471,-0.4421 3.2323,-1.8566 3.8207,-3.8098 0.0525,-0.174 0.0277,-0.3702 0.0387,-0.5553 -0.2127,0.0138 -0.431,0 -0.6354,0.0498 -1.0747,0.2569 -2.1328,0.6105 -3.2185,0.7846 -1.7377,0.2762 -3.4838,0.4226 -5.2463,0.0497 -1.1466,-0.2431 -2.3179,-0.3702 -3.481,-0.5194 -2.4284,-0.3067 -4.843,-0.663 -7.1305,-1.5996 -0.326,-0.1326 -0.6575,-0.2624 -0.9863,-0.3895 -0.326,-0.1244 -0.5663,-0.058 -0.7155,0.2873 -0.3757,0.8758 -0.4862,1.7598 -0.0995,2.6577 0.0746,0.1713 0.1824,0.3729 0.3316,0.4558 0.6547,0.3592 1.3012,0.7598 2.0001,1.0029 1.7018,0.5884 3.4644,0.9448 5.2491,1.1907 2.0334,0.2846 4.0612,0.5829 6.2658,0.9006 z m -3.1218,7.2189 c 0.4834,-0.0221 0.9862,0.0249 1.4586,-0.0829 1.2433,-0.2818 2.5224,-0.5276 3.2766,-1.746 0.2569,-0.4171 0.5525,-0.8122 0.7984,-1.2377 0.2542,-0.4365 0.1188,-0.6299 -0.4227,-0.6133 -0.6851,0.0221 -1.3813,0.1603 -2.0527,0.0857 -2.1991,-0.2431 -4.3926,-0.5222 -6.5779,-0.862 -1.5803,-0.2459 -3.1439,-0.6023 -4.7131,-0.9255 -0.4531,-0.0939 -0.8482,-0.0331 -1.1659,0.3122 -0.7321,0.7929 -0.5442,2.4063 0.3011,3.0914 0.9587,0.7791 2.1052,1.0443 3.2573,1.2267 1.9366,0.3094 3.887,0.5055 5.8403,0.7514 z"
     fill="#0ffd6a"
     id="path2"
     style="fill:#55d17c;fill-opacity:1" />
  <path
     d="m 62.335639,0.586244 c 4.1495,1.265306 7.5089,3.668836 10.0534,7.177446 0.4282,0.58845 0.7708,1.2653 1.036,1.94492 0.5138,1.30399 0.4834,2.58589 -0.384,3.77659 -0.6078,0.8343 -1.2598,1.6466 -1.7543,2.5472 -1.2211,2.2074 -3.213,2.4008 -5.3348,2.0278 -3.2738,-0.5746 -6.0613,-2.224 -8.5698,-4.3319 -1.5886,-1.3344 -2.9506,-2.8759 -3.8125,-4.80705 -0.6382,-1.43107 -0.8371,-2.79583 0.2072,-4.15231 0.6271,-0.81223 1.2073,-1.67418 1.7184,-2.56929 1.1189,-1.958742 2.8676,-2.406296 4.9203,-2.1217399 0.6492,0.0856429 1.2791,0.3342849 1.9201,0.5083339 z m 3.108,15.062156 c 0.5221,0.0525 1.1797,0.1519 1.8372,0.174 1.6161,0.0525 2.0084,-0.5304 1.3564,-2.0002 -0.1768,-0.4033 -0.3978,-0.7984 -0.663,-1.1465 -2.5002,-3.22125 -5.6,-5.53914 -9.6473,-6.49227 -0.9642,-0.22654 -1.9919,-0.59397 -2.63,0.29837 -0.6631,0.9255 0.069,1.84547 0.6216,2.61074 2.2764,3.14946 5.3899,5.16346 9.1251,6.55586 z m -4.3098,-13.14486 c -0.4918,-0.0221 -1.4421,-0.13813 -2.3814,-0.0663 -0.3426,0.02763 -0.6493,0.49728 -0.9752,0.76526 0.2762,0.18786 0.5304,0.46413 0.837,0.54701 4.7933,1.29846 8.7329,3.80698 11.4956,8.01449 0.0773,0.1188 0.1989,0.2128 0.3094,0.3122 0.4006,0.3592 0.6658,0.1575 0.815,-0.2431 0.384,-1.0249 -0.0746,-1.95596 -0.6327,-2.68255 -2.3427,-3.05 -5.3513,-5.23528 -9.4677,-6.64701 z"
     fill="#0ffd6a"
     id="path4"
     style="fill:#55d17c;fill-opacity:1" />
</svg>
